RedHatDisplay-MediumItalic.ufo
<glyph name="exclam" format="2">
  <advance width="211"/>
  <unicode hex="0021"/>
  <outline>
    <contour>
      <point x="56" y="200" type="line"/>
      <point x="132" y="200" type="line"/>
      <point x="256" y="725" type="line"/>
      <point x="155" y="725" type="line"/>
    </contour>
    <contour>
      <point x="56" y="-8" type="curve"/>
      <point x="92" y="-8"/>
      <point x="125" y="26"/>
      <point x="125" y="63" type="curve" smooth="yes"/>
      <point x="125" y="94"/>
      <point x="102" y="119"/>
      <point x="71" y="119" type="curve"/>
      <point x="33" y="119"/>
      <point x="0" y="86"/>
      <point x="0" y="48" type="curve" smooth="yes"/>
      <point x="0" y="17"/>
      <point x="24" y="-8"/>
    </contour>
  </outline>
</glyph>
<glyph name="numbersign" format="2">
  <advance width="696"/>
  <unicode hex="0023"/>
  <outline>
    <contour>
      <point x="7" y="0" type="line"/>
      <point x="97" y="0" type="line"/>
      <point x="200" y="209" type="line"/>
      <point x="374" y="209" type="line"/>
      <point x="271" y="0" type="line"/>
      <point x="361" y="0" type="line"/>
      <point x="464" y="209" type="line"/>
      <point x="596" y="209" type="line"/>
      <point x="612" y="283" type="line"/>
      <point x="500" y="283" type="line"/>
      <point x="566" y="417" type="line"/>
      <point x="690" y="417" type="line"/>
      <point x="705" y="491" type="line"/>
      <point x="602" y="491" type="line"/>
      <point x="705" y="700" type="line"/>
      <point x="616" y="700" type="line"/>
      <point x="513" y="491" type="line"/>
      <point x="339" y="491" type="line"/>
      <point x="442" y="700" type="line"/>
      <point x="352" y="700" type="line"/>
      <point x="249" y="491" type="line"/>
      <point x="116" y="491" type="line"/>
      <point x="100" y="417" type="line"/>
      <point x="213" y="417" type="line"/>
      <point x="146" y="283" type="line"/>
      <point x="22" y="283" type="line"/>
      <point x="7" y="209" type="line"/>
      <point x="110" y="209" type="line"/>
    </contour>
    <contour>
      <point x="236" y="283" type="line"/>
      <point x="303" y="417" type="line"/>
      <point x="477" y="417" type="line"/>
      <point x="410" y="283" type="line"/>
    </contour>
  </outline>
</glyph>
<glyph name="dollar" format="2">
  <advance width="569"/>
  <unicode hex="0024"/>
  <outline>
    <contour>
      <point x="181" y="-75" type="line"/>
      <point x="237" y="-75" type="line"/>
      <point x="257" y="17" type="line"/>
      <point x="268" y="17" type="line" smooth="yes"/>
      <point x="428" y="17"/>
      <point x="533" y="101"/>
      <point x="533" y="227" type="curve" smooth="yes"/>
      <point x="533" y="308"/>
      <point x="483" y="357"/>
      <point x="365" y="389" type="curve" smooth="yes"/>
      <point x="337" y="396" type="line"/>
      <point x="379" y="596" type="line"/>
      <point x="434" y="583"/>
      <point x="484" y="555"/>
      <point x="531" y="512" type="curve"/>
      <point x="594" y="581" type="line"/>
      <point x="539" y="631"/>
      <point x="470" y="665"/>
      <point x="397" y="678" type="curve"/>
      <point x="414" y="759" type="line"/>
      <point x="358" y="759" type="line"/>
      <point x="342" y="685" type="line"/>
      <point x="326" y="685" type="line" smooth="yes"/>
      <point x="174" y="685"/>
      <point x="76" y="608"/>
      <point x="76" y="487" type="curve" smooth="yes"/>
      <point x="76" y="408"/>
      <point x="124" y="356"/>
      <point x="220" y="330" type="curve" smooth="yes"/>
      <point x="264" y="318" type="line"/>
      <point x="219" y="105" type="line"/>
      <point x="158" y="119"/>
      <point x="103" y="155"/>
      <point x="57" y="213" type="curve"/>
      <point x="-10" y="148" type="line"/>
      <point x="46" y="79"/>
      <point x="118" y="37"/>
      <point x="202" y="23" type="curve"/>
    </contour>
    <contour>
      <point x="263" y="411" type="line" smooth="yes"/>
      <point x="197" y="429"/>
      <point x="169" y="455"/>
      <point x="169" y="499" type="curve" smooth="yes"/>
      <point x="169" y="562"/>
      <point x="227" y="603"/>
      <point x="315" y="603" type="curve" smooth="yes"/>
      <point x="325" y="603" type="line"/>
      <point x="283" y="405" type="line"/>
    </contour>
    <contour>
      <point x="326" y="305" type="line" smooth="yes"/>
      <point x="410" y="281"/>
      <point x="438" y="257"/>
      <point x="438" y="213" type="curve" smooth="yes"/>
      <point x="438" y="146"/>
      <point x="372.0" y="99.0"/>
      <point x="274" y="99" type="curve"/>
      <point x="318" y="307" type="line"/>
    </contour>
  </outline>
</glyph>
<glyph name="ampersand" format="2">
  <advance width="652"/>
  <unicode hex="0026"/>
  <outline>
    <contour>
      <point x="601" y="56" type="line"/>
      <point x="574" y="79"/>
      <point x="545" y="105"/>
      <point x="517" y="134" type="curve"/>
      <point x="564" y="187"/>
      <point x="605" y="255"/>
      <point x="641" y="339" type="curve"/>
      <point x="557" y="361" type="line"/>
      <point x="530" y="294"/>
      <point x="498" y="238"/>
      <point x="461" y="193" type="curve"/>
      <point x="411" y="249"/>
      <point x="364" y="310"/>
      <point x="325" y="369" type="curve"/>
      <point x="381" y="397" type="line" smooth="yes"/>
      <point x="478" y="445"/>
      <point x="521" y="501"/>
      <point x="521" y="574" type="curve" smooth="yes"/>
      <point x="521" y="653"/>
      <point x="457" y="708"/>
      <point x="364" y="708" type="curve"/>
      <point x="252" y="708"/>
      <point x="170" y="628"/>
      <point x="170" y="519" type="curve" smooth="yes"/>
      <point x="170" y="477"/>
      <point x="179" y="439"/>
      <point x="203" y="394" type="curve"/>
      <point x="182" y="384" type="line" smooth="yes"/>
      <point x="65" y="328"/>
      <point x="13" y="264"/>
      <point x="13" y="171" type="curve" smooth="yes"/>
      <point x="13" y="62"/>
      <point x="103" y="-9"/>
      <point x="239" y="-9" type="curve" smooth="yes"/>
      <point x="316" y="-9"/>
      <point x="388" y="17"/>
      <point x="450" y="65" type="curve"/>
      <point x="479" y="36"/>
      <point x="507" y="10"/>
      <point x="535" y="-13" type="curve"/>
    </contour>
    <contour>
      <point x="260" y="529" type="curve" smooth="yes"/>
      <point x="260" y="589"/>
      <point x="300" y="632"/>
      <point x="356" y="632" type="curve"/>
      <point x="401" y="632"/>
      <point x="429" y="605"/>
      <point x="429" y="563" type="curve" smooth="yes"/>
      <point x="429" y="521"/>
      <point x="402" y="488"/>
      <point x="345" y="459" type="curve" smooth="yes"/>
      <point x="289" y="432" type="line"/>
      <point x="268" y="470"/>
      <point x="260" y="499"/>
    </contour>
    <contour>
      <point x="107" y="186" type="curve" smooth="yes"/>
      <point x="107" y="241"/>
      <point x="143" y="285"/>
      <point x="221" y="321" type="curve" smooth="yes"/>
      <point x="241" y="330" type="line"/>
      <point x="285" y="259"/>
      <point x="339" y="187"/>
      <point x="396" y="123" type="curve"/>
      <point x="350" y="89"/>
      <point x="301" y="71"/>
      <point x="249" y="71" type="curve" smooth="yes"/>
      <point x="164" y="71"/>
      <point x="107" y="117"/>
    </contour>
  </outline>
</glyph>
<glyph name="plus" format="2">
  <advance width="525"/>
  <unicode hex="002B"/>
  <outline>
    <contour>
      <point x="277" y="139" type="line"/>
      <point x="315" y="318" type="line"/>
      <point x="488" y="318" type="line"/>
      <point x="505" y="398" type="line"/>
      <point x="332" y="398" type="line"/>
      <point x="370" y="574" type="line"/>
      <point x="291" y="574" type="line"/>
      <point x="253" y="398" type="line"/>
      <point x="81" y="398" type="line"/>
      <point x="64" y="318" type="line"/>
      <point x="236" y="318" type="line"/>
      <point x="198" y="139" type="line"/>
    </contour>
  </outline>
</glyph>
<glyph name="period" format="2">
  <advance width="211"/>
  <unicode hex="002E"/>
  <outline>
    <contour>
      <point x="71" y="119" type="curve"/>
      <point x="33" y="119"/>
      <point x="0" y="86"/>
      <point x="0" y="48" type="curve" smooth="yes"/>
      <point x="0" y="17"/>
      <point x="24" y="-8"/>
      <point x="56" y="-8" type="curve"/>
      <point x="92" y="-8"/>
      <point x="125" y="26"/>
      <point x="125" y="63" type="curve" smooth="yes"/>
      <point x="125" y="94"/>
      <point x="102" y="119"/>
    </contour>
  </outline>
</glyph>
<glyph name="zero" format="2">
  <advance width="662"/>
  <unicode hex="0030"/>
  <outline>
    <contour>
      <point x="304" y="-9" type="curve"/>
      <point x="492" y="-9"/>
      <point x="650" y="193"/>
      <point x="650" y="435" type="curve"/>
      <point x="650" y="601"/>
      <point x="550" y="710"/>
      <point x="398" y="710" type="curve"/>
      <point x="210" y="710"/>
      <point x="53" y="507"/>
      <point x="53" y="265" type="curve"/>
      <point x="53" y="99"/>
      <point x="152" y="-9"/>
    </contour>
    <contour>
      <point x="315" y="78" type="curve"/>
      <point x="212" y="78"/>
      <point x="149" y="150"/>
      <point x="149" y="268" type="curve"/>
      <point x="149" y="461"/>
      <point x="258" y="623"/>
      <point x="388" y="623" type="curve"/>
      <point x="490" y="623"/>
      <point x="553" y="551"/>
      <point x="553" y="432" type="curve"/>
      <point x="553" y="239"/>
      <point x="444" y="78"/>
    </contour>
  </outline>
</glyph>
<glyph name="one" format="2">
  <advance width="308"/>
  <unicode hex="0031"/>
  <outline>
    <contour>
      <point x="340" y="700" type="line"/>
      <point x="278" y="700" type="line"/>
      <point x="104" y="632" type="line"/>
      <point x="85" y="544" type="line"/>
      <point x="220" y="597" type="line"/>
      <point x="93" y="0" type="line"/>
      <point x="191" y="0" type="line"/>
    </contour>
  </outline>
</glyph>
<glyph name="two" format="2">
  <advance width="544"/>
  <unicode hex="0032"/>
  <outline>
    <contour>
      <point x="-17" y="0" type="line"/>
      <point x="458" y="0" type="line"/>
      <point x="475" y="84" type="line"/>
      <point x="140" y="84" type="line"/>
      <point x="407" y="293" type="line" smooth="yes"/>
      <point x="516" y="377"/>
      <point x="558" y="444"/>
      <point x="558" y="530" type="curve" smooth="yes"/>
      <point x="558" y="635"/>
      <point x="470" y="708"/>
      <point x="344" y="708" type="curve" smooth="yes"/>
      <point x="263" y="708"/>
      <point x="182" y="678"/>
      <point x="95" y="617" type="curve"/>
      <point x="137" y="547" type="line"/>
      <point x="213" y="601"/>
      <point x="268" y="623"/>
      <point x="327" y="623" type="curve" smooth="yes"/>
      <point x="405" y="623"/>
      <point x="459" y="579"/>
      <point x="459" y="515" type="curve" smooth="yes"/>
      <point x="459" y="459"/>
      <point x="426" y="409"/>
      <point x="348" y="347" type="curve" smooth="yes"/>
      <point x="-2" y="71" type="line"/>
    </contour>
  </outline>
</glyph>
<glyph name="four" format="2">
  <advance width="628"/>
  <unicode hex="0034"/>
  <outline>
    <contour>
      <point x="607" y="700" type="line"/>
      <point x="498" y="700" type="line"/>
      <point x="26" y="257" type="line"/>
      <point x="9" y="177" type="line"/>
      <point x="398" y="177" type="line"/>
      <point x="361" y="0" type="line"/>
      <point x="458" y="0" type="line"/>
      <point x="496" y="177" type="line"/>
      <point x="580" y="177" type="line"/>
      <point x="598" y="262" type="line"/>
      <point x="514" y="262" type="line"/>
    </contour>
    <contour>
      <point x="145" y="262" type="line"/>
      <point x="484" y="581" type="line"/>
      <point x="416" y="262" type="line"/>
    </contour>
  </outline>
</glyph>
<glyph name="five" format="2">
  <advance width="571"/>
  <unicode hex="0035"/>
  <outline>
    <contour>
      <point x="84" y="360" type="line"/>
      <point x="139" y="336" type="line"/>
      <point x="183" y="350"/>
      <point x="226" y="357"/>
      <point x="266" y="357" type="curve" smooth="yes"/>
      <point x="366" y="357"/>
      <point x="429" y="308"/>
      <point x="429" y="230" type="curve"/>
      <point x="429" y="141"/>
      <point x="354" y="75"/>
      <point x="253" y="75" type="curve" smooth="yes"/>
      <point x="176" y="75"/>
      <point x="117" y="103"/>
      <point x="64" y="166" type="curve"/>
      <point x="-6" y="103" type="line"/>
      <point x="52" y="31"/>
      <point x="143" y="-9"/>
      <point x="248" y="-9" type="curve" smooth="yes"/>
      <point x="405" y="-9"/>
      <point x="530" y="103"/>
      <point x="530" y="242" type="curve"/>
      <point x="530" y="359"/>
      <point x="437" y="436"/>
      <point x="297" y="436" type="curve" smooth="yes"/>
      <point x="259" y="436"/>
      <point x="222" y="431"/>
      <point x="185" y="421" type="curve"/>
      <point x="234" y="615" type="line"/>
      <point x="574" y="615" type="line"/>
      <point x="592" y="700" type="line"/>
      <point x="170" y="700" type="line"/>
    </contour>
  </outline>
</glyph>
<glyph name="six" format="2">
  <advance width="612"/>
  <unicode hex="0036"/>
  <outline>
    <contour>
      <point x="301" y="-9" type="curve" smooth="yes"/>
      <point x="448" y="-9"/>
      <point x="571" y="105"/>
      <point x="571" y="241" type="curve"/>
      <point x="571" y="354"/>
      <point x="482" y="435"/>
      <point x="358" y="435" type="curve" smooth="yes"/>
      <point x="287" y="435"/>
      <point x="216" y="407"/>
      <point x="159" y="358" type="curve"/>
      <point x="192" y="509"/>
      <point x="299" y="620"/>
      <point x="427" y="620" type="curve" smooth="yes"/>
      <point x="478" y="620"/>
      <point x="527" y="602"/>
      <point x="566" y="570" type="curve"/>
      <point x="632" y="639" type="line"/>
      <point x="581" y="682"/>
      <point x="512" y="707"/>
      <point x="441" y="707" type="curve" smooth="yes"/>
      <point x="228" y="707"/>
      <point x="52" y="506"/>
      <point x="52" y="264" type="curve"/>
      <point x="52" y="99"/>
      <point x="150" y="-9"/>
    </contour>
    <contour>
      <point x="149" y="259" type="curve" smooth="yes"/>
      <point x="149" y="278" type="line"/>
      <point x="204" y="329"/>
      <point x="268" y="357"/>
      <point x="332" y="357" type="curve" smooth="yes"/>
      <point x="415" y="357"/>
      <point x="474" y="304"/>
      <point x="474" y="229" type="curve"/>
      <point x="474" y="146"/>
      <point x="398" y="77"/>
      <point x="307" y="77" type="curve" smooth="yes"/>
      <point x="210" y="77"/>
      <point x="149" y="147"/>
    </contour>
  </outline>
</glyph>
<glyph name="seven" format="2">
  <advance width="563"/>
  <unicode hex="0037"/>
  <outline>
    <contour>
      <point x="36" y="0" type="line"/>
      <point x="157" y="0" type="line"/>
      <point x="624" y="625" type="line"/>
      <point x="640" y="700" type="line"/>
      <point x="111" y="700" type="line"/>
      <point x="93" y="613" type="line"/>
      <point x="506" y="613" type="line"/>
    </contour>
  </outline>
</glyph>
<glyph name="eight" format="2">
  <advance width="610"/>
  <unicode hex="0038"/>
  <outline>
    <contour>
      <point x="277" y="-10" type="curve" smooth="yes"/>
      <point x="434" y="-10"/>
      <point x="558" y="87"/>
      <point x="558" y="208" type="curve" smooth="yes"/>
      <point x="558" y="272"/>
      <point x="519" y="326"/>
      <point x="456" y="356" type="curve"/>
      <point x="540" y="386"/>
      <point x="600" y="457"/>
      <point x="600" y="537" type="curve" smooth="yes"/>
      <point x="600" y="637"/>
      <point x="507" y="710"/>
      <point x="378" y="710" type="curve" smooth="yes"/>
      <point x="236" y="710"/>
      <point x="121" y="618"/>
      <point x="121" y="506" type="curve" smooth="yes"/>
      <point x="121" y="450"/>
      <point x="150" y="403"/>
      <point x="199" y="374" type="curve"/>
      <point x="98" y="347"/>
      <point x="26" y="266"/>
      <point x="26" y="174" type="curve" smooth="yes"/>
      <point x="26" y="66"/>
      <point x="129" y="-10"/>
    </contour>
    <contour>
      <point x="350" y="404" type="curve" smooth="yes"/>
      <point x="273" y="404"/>
      <point x="216" y="448"/>
      <point x="216" y="507" type="curve" smooth="yes"/>
      <point x="216" y="575"/>
      <point x="286" y="630"/>
      <point x="370" y="630" type="curve" smooth="yes"/>
      <point x="446" y="630"/>
      <point x="503" y="586"/>
      <point x="503" y="527" type="curve" smooth="yes"/>
      <point x="503" y="460"/>
      <point x="434" y="404"/>
    </contour>
    <contour>
      <point x="283" y="71" type="curve" smooth="yes"/>
      <point x="192" y="71"/>
      <point x="126" y="121"/>
      <point x="126" y="189" type="curve" smooth="yes"/>
      <point x="126" y="264"/>
      <point x="205" y="325"/>
      <point x="302" y="325" type="curve" smooth="yes"/>
      <point x="393" y="325"/>
      <point x="461" y="275"/>
      <point x="461" y="208" type="curve" smooth="yes"/>
      <point x="461" y="133"/>
      <point x="380" y="71"/>
    </contour>
  </outline>
</glyph>
<glyph name="less" format="2">
  <advance width="515"/>
  <unicode hex="003C"/>
  <outline>
    <contour>
      <point x="347" y="85" type="line"/>
      <point x="409" y="144" type="line"/>
      <point x="197" y="345" type="line"/>
      <point x="497" y="547" type="line"/>
      <point x="458" y="611" type="line"/>
      <point x="80" y="349" type="line"/>
    </contour>
  </outline>
</glyph>
<glyph name="A" format="2">
  <advance width="687"/>
  <unicode hex="0041"/>
  <anchor x="431" y="700" name="top"/>
  <anchor x="633" y="0" name="bottom"/>
  <outline>
    <contour>
      <point x="-53" y="0" type="line"/>
      <point x="60" y="0" type="line"/>
      <point x="182" y="205" type="line"/>
      <point x="489" y="205" type="line"/>
      <point x="526" y="0" type="line"/>
      <point x="633" y="0" type="line"/>
      <point x="498" y="700" type="line"/>
      <point x="376" y="700" type="line"/>
    </contour>
    <contour>
      <point x="234" y="292" type="line"/>
      <point x="418" y="600" type="line"/>
      <point x="473" y="292" type="line"/>
    </contour>
  </outline>
</glyph>
<glyph name="B" format="2">
  <advance width="658"/>
  <unicode hex="0042"/>
  <outline>
    <contour>
      <point x="165" y="700" type="line"/>
      <point x="16" y="0" type="line"/>
      <point x="345" y="0" type="line"/>
      <point x="497" y="0"/>
      <point x="608" y="93"/>
      <point x="608" y="221" type="curve" smooth="yes"/>
      <point x="608" y="282"/>
      <point x="574" y="330"/>
      <point x="517" y="357" type="curve"/>
      <point x="593" y="391"/>
      <point x="642" y="458"/>
      <point x="642" y="539" type="curve" smooth="yes"/>
      <point x="642" y="638"/>
      <point x="565" y="700"/>
      <point x="442" y="700" type="curve"/>
    </contour>
    <contour>
      <point x="426" y="611" type="line"/>
      <point x="495" y="611"/>
      <point x="538" y="578"/>
      <point x="538" y="522" type="curve" smooth="yes"/>
      <point x="538" y="452"/>
      <point x="479" y="403"/>
      <point x="396" y="403" type="curve"/>
      <point x="204" y="403" type="line"/>
      <point x="248" y="611" type="line"/>
    </contour>
    <contour>
      <point x="347" y="89" type="curve"/>
      <point x="137" y="89" type="line"/>
      <point x="186" y="319" type="line"/>
      <point x="379" y="319" type="line"/>
      <point x="457" y="319"/>
      <point x="504" y="281"/>
      <point x="504" y="220" type="curve" smooth="yes"/>
      <point x="504" y="143"/>
      <point x="440" y="89"/>
    </contour>
  </outline>
</glyph>
<glyph name="E" format="2">
  <advance width="616"/>
  <unicode hex="0045"/>
  <anchor x="412" y="700" name="top"/>
  <anchor x="525" y="0" name="bottom"/>
  <outline>
    <contour>
      <point x="16" y="0" type="line"/>
      <point x="525" y="0" type="line"/>
      <point x="545" y="92" type="line"/>
      <point x="138" y="92" type="line"/>
      <point x="184" y="308" type="line"/>
      <point x="448" y="308" type="line"/>
      <point x="467" y="398" type="line"/>
      <point x="203" y="398" type="line"/>
      <point x="247" y="608" type="line"/>
      <point x="651" y="608" type="line"/>
      <point x="670" y="700" type="line"/>
      <point x="165" y="700" type="line"/>
    </contour>
  </outline>
</glyph>
<glyph name="F" format="2">
  <advance width="609"/>
  <unicode hex="0046"/>
  <outline>
    <contour>
      <point x="16" y="0" type="line"/>
      <point x="118" y="0" type="line"/>
      <point x="182" y="303" type="line"/>
      <point x="449" y="303" type="line"/>
      <point x="468" y="393" type="line"/>
      <point x="202" y="393" type="line"/>
      <point x="247" y="608" type="line"/>
      <point x="652" y="608" type="line"/>
      <point x="672" y="700" type="line"/>
      <point x="165" y="700" type="line"/>
    </contour>
  </outline>
</glyph>
<glyph name="K" format="2">
  <advance width="636"/>
  <unicode hex="004B"/>
  <anchor x="279" y="0" name="bottom"/>
  <outline>
    <contour>
      <point x="16" y="0" type="line"/>
      <point x="118" y="0" type="line"/>
      <point x="190" y="341" type="line"/>
      <point x="456" y="0" type="line"/>
      <point x="588" y="0" type="line"/>
      <point x="302" y="360" type="line"/>
      <point x="732" y="700" type="line"/>
      <point x="595" y="700" type="line"/>
      <point x="200" y="385" type="line"/>
      <point x="267" y="700" type="line"/>
      <point x="165" y="700" type="line"/>
    </contour>
  </outline>
</glyph>
<glyph name="L" format="2">
  <advance width="602"/>
  <unicode hex="004C"/>
  <anchor x="216" y="700" name="top"/>
  <anchor x="284" y="0" name="bottom"/>
  <outline>
    <contour>
      <point x="16" y="0" type="line"/>
      <point x="513" y="0" type="line"/>
      <point x="533" y="93" type="line"/>
      <point x="138" y="93" type="line"/>
      <point x="267" y="700" type="line"/>
      <point x="165" y="700" type="line"/>
    </contour>
  </outline>
</glyph>
<glyph name="M" format="2">
  <advance width="844"/>
  <unicode hex="004D"/>
  <outline>
    <contour>
      <point x="380" y="50" type="line"/>
      <point x="745" y="569" type="line"/>
      <point x="625" y="0" type="line"/>
      <point x="720" y="0" type="line"/>
      <point x="869" y="700" type="line"/>
      <point x="728" y="700" type="line"/>
      <point x="419" y="252" type="line"/>
      <point x="298" y="700" type="line"/>
      <point x="165" y="700" type="line"/>
      <point x="16" y="0" type="line"/>
      <point x="113" y="0" type="line"/>
      <point x="234" y="572" type="line"/>
    </contour>
  </outline>
</glyph>
<glyph name="N" format="2">
  <advance width="720"/>
  <unicode hex="004E"/>
  <anchor x="455" y="700" name="top"/>
  <anchor x="306" y="0" name="bottom"/>
  <outline>
    <contour>
      <point x="165" y="700" type="line"/>
      <point x="16" y="0" type="line"/>
      <point x="113" y="0" type="line"/>
      <point x="228" y="545" type="line"/>
      <point x="507" y="0" type="line"/>
      <point x="595" y="0" type="line"/>
      <point x="744" y="700" type="line"/>
      <point x="647" y="700" type="line"/>
      <point x="535" y="169" type="line"/>
      <point x="263" y="700" type="line"/>
    </contour>
  </outline>
</glyph>
<glyph name="R" format="2">
  <advance width="646"/>
  <unicode hex="0052"/>
  <anchor x="410" y="700" name="top"/>
  <anchor x="270" y="0" name="bottom"/>
  <outline>
    <contour>
      <point x="16" y="0" type="line"/>
      <point x="118" y="0" type="line"/>
      <point x="179" y="288" type="line"/>
      <point x="371" y="288" type="line"/>
      <point x="466" y="0" type="line"/>
      <point x="574" y="0" type="line"/>
      <point x="473" y="295" type="line"/>
      <point x="584" y="319"/>
      <point x="661" y="406"/>
      <point x="661" y="517" type="curve" smooth="yes"/>
      <point x="661" y="628"/>
      <point x="581" y="700"/>
      <point x="456" y="700" type="curve"/>
      <point x="165" y="700" type="line"/>
    </contour>
    <contour>
      <point x="439" y="608" type="line"/>
      <point x="512" y="608"/>
      <point x="557" y="570"/>
      <point x="557" y="508" type="curve" smooth="yes"/>
      <point x="557" y="431"/>
      <point x="495" y="375"/>
      <point x="407" y="375" type="curve"/>
      <point x="198" y="375" type="line"/>
      <point x="247" y="608" type="line"/>
    </contour>
  </outline>
</glyph>
<glyph name="T" format="2">
  <advance width="619"/>
  <unicode hex="0054"/>
  <anchor x="404" y="700" name="top"/>
  <anchor x="255" y="0" name="bottom"/>
  <outline>
    <contour>
      <point x="91" y="607" type="line"/>
      <point x="332" y="607" type="line"/>
      <point x="203" y="0" type="line"/>
      <point x="306" y="0" type="line"/>
      <point x="435" y="607" type="line"/>
      <point x="676" y="607" type="line"/>
      <point x="696" y="700" type="line"/>
      <point x="112" y="700" type="line"/>
    </contour>
  </outline>
</glyph>
<glyph name="W" format="2">
  <advance width="890"/>
  <unicode hex="0057"/>
  <anchor x="537" y="700" name="top"/>
  <outline>
    <contour>
      <point x="232" y="0" type="line"/>
      <point x="508" y="550" type="line"/>
      <point x="549" y="0" type="line"/>
      <point x="656" y="0" type="line"/>
      <point x="954" y="700" type="line"/>
      <point x="849" y="700" type="line"/>
      <point x="628" y="165" type="line"/>
      <point x="587" y="700" type="line"/>
      <point x="489" y="700" type="line"/>
      <point x="221" y="167" type="line"/>
      <point x="227" y="700" type="line"/>
      <point x="125" y="700" type="line"/>
      <point x="126" y="0" type="line"/>
    </contour>
  </outline>
</glyph>
<glyph name="Y" format="2">
  <advance width="653"/>
  <unicode hex="0059"/>
  <anchor x="415" y="700" name="top"/>
  <outline>
    <contour>
      <point x="220" y="0" type="line"/>
      <point x="323" y="0" type="line"/>
      <point x="382" y="275" type="line"/>
      <point x="749" y="700" type="line"/>
      <point x="626" y="700" type="line"/>
      <point x="346" y="371" type="line"/>
      <point x="203" y="700" type="line"/>
      <point x="94" y="700" type="line"/>
      <point x="279" y="278" type="line"/>
    </contour>
  </outline>
</glyph>
<glyph name="bracketleft" format="2">
  <advance width="359"/>
  <unicode hex="005B"/>
  <outline>
    <contour>
      <point x="223" y="-209" type="line"/>
      <point x="240" y="-130" type="line"/>
      <point x="67" y="-130" type="line"/>
      <point x="227" y="620" type="line"/>
      <point x="399" y="620" type="line"/>
      <point x="416" y="700" type="line"/>
      <point x="150" y="700" type="line"/>
      <point x="-44" y="-209" type="line"/>
    </contour>
  </outline>
</glyph>
<glyph name="asciicircum" format="2">
  <advance width="532"/>
  <unicode hex="005E"/>
  <outline>
    <contour>
      <point x="62" y="350" type="line"/>
      <point x="149" y="350" type="line"/>
      <point x="345" y="618" type="line"/>
      <point x="427" y="350" type="line"/>
      <point x="510" y="350" type="line"/>
      <point x="403" y="700" type="line"/>
      <point x="318" y="700" type="line"/>
    </contour>
  </outline>
</glyph>
<glyph name="e" format="2">
  <advance width="562"/>
  <unicode hex="0065"/>
  <anchor x="308" y="509" name="top"/>
  <anchor x="366" y="0" name="bottom"/>
  <outline>
    <contour>
      <point x="470" y="49" type="curve"/>
      <point x="417" y="115" type="line"/>
      <point x="383" y="89"/>
      <point x="338" y="75"/>
      <point x="291" y="75" type="curve" smooth="yes"/>
      <point x="202" y="75"/>
      <point x="137" y="137"/>
      <point x="130" y="223" type="curve"/>
      <point x="524" y="223" type="line"/>
      <point x="527" y="250"/>
      <point x="527" y="261"/>
      <point x="527" y="275" type="curve" smooth="yes"/>
      <point x="527" y="415"/>
      <point x="433" y="517"/>
      <point x="305" y="517" type="curve" smooth="yes"/>
      <point x="156" y="517"/>
      <point x="34" y="387"/>
      <point x="34" y="231" type="curve" smooth="yes"/>
      <point x="34" y="91"/>
      <point x="139" y="-10"/>
      <point x="285" y="-10" type="curve" smooth="yes"/>
      <point x="354" y="-10"/>
      <point x="411" y="8"/>
    </contour>
    <contour>
      <point x="298" y="432" type="curve" smooth="yes"/>
      <point x="372" y="432"/>
      <point x="427" y="376"/>
      <point x="435" y="297" type="curve"/>
      <point x="138" y="297" type="line"/>
      <point x="160" y="375"/>
      <point x="223" y="432"/>
    </contour>
  </outline>
</glyph>
<glyph name="g" format="2">
  <advance width="596"/>
  <unicode hex="0067"/>
  <note>
Version created Sun Jan 13 16:53:00 2019
</note>
  <anchor x="329" y="509" name="top"/>
  <outline>
    <contour>
      <point x="260" y="-5" type="curve" smooth="yes"/>
      <point x="307" y="-5"/>
      <point x="351" y="8"/>
      <point x="391" y="33" type="curve"/>
      <point x="380" y="-20" type="line" smooth="yes"/>
      <point x="364" y="-91"/>
      <point x="320" y="-127"/>
      <point x="248" y="-127" type="curve" smooth="yes"/>
      <point x="190" y="-127"/>
      <point x="132" y="-106"/>
      <point x="74" y="-66" type="curve"/>
      <point x="26" y="-140" type="line"/>
      <point x="86" y="-185"/>
      <point x="173" y="-213"/>
      <point x="251" y="-213" type="curve" smooth="yes"/>
      <point x="372" y="-213"/>
      <point x="452" y="-148"/>
      <point x="477" y="-30" type="curve" smooth="yes"/>
      <point x="589" y="509" type="line"/>
      <point x="492" y="509" type="line"/>
      <point x="480" y="453" type="line"/>
      <point x="439" y="494"/>
      <point x="381" y="516"/>
      <point x="316" y="516" type="curve" smooth="yes"/>
      <point x="161" y="516"/>
      <point x="36" y="387"/>
      <point x="36" y="228" type="curve" smooth="yes"/>
      <point x="36" y="94"/>
      <point x="132" y="-5"/>
    </contour>
    <contour>
      <point x="132" y="236" type="curve" smooth="yes"/>
      <point x="132" y="343"/>
      <point x="215" y="430"/>
      <point x="320" y="430" type="curve" smooth="yes"/>
      <point x="379" y="430"/>
      <point x="433" y="403"/>
      <point x="460" y="362" type="curve"/>
      <point x="411" y="126" type="line"/>
      <point x="376" y="96"/>
      <point x="331" y="79"/>
      <point x="284" y="79" type="curve" smooth="yes"/>
      <point x="195" y="79"/>
      <point x="132" y="145"/>
    </contour>
  </outline>
</glyph>
<glyph name="h" format="2">
  <advance width="557"/>
  <unicode hex="0068"/>
  <anchor x="200" y="700" name="top"/>
  <outline>
    <contour>
      <point x="5" y="0" type="line"/>
      <point x="102" y="0" type="line"/>
      <point x="181" y="372" type="line"/>
      <point x="216" y="411"/>
      <point x="262" y="432"/>
      <point x="311" y="432" type="curve" smooth="yes"/>
      <point x="389" y="432"/>
      <point x="430" y="378"/>
      <point x="412" y="295" type="curve" smooth="yes"/>
      <point x="350" y="0" type="line"/>
      <point x="447" y="0" type="line"/>
      <point x="512" y="306" type="line" smooth="yes"/>
      <point x="538" y="428"/>
      <point x="469" y="518"/>
      <point x="348" y="518" type="curve" smooth="yes"/>
      <point x="294" y="518"/>
      <point x="244" y="500"/>
      <point x="201" y="466" type="curve"/>
      <point x="256" y="722" type="line"/>
      <point x="154" y="700" type="line"/>
    </contour>
  </outline>
</glyph>
<glyph name="i" format="2">
  <advance width="215"/>
  <unicode hex="0069"/>
  <anchor x="161" y="509" name="top"/>
  <anchor x="102" y="0" name="bottom"/>
  <outline>
    <contour>
      <point x="185" y="591" type="curve"/>
      <point x="221" y="591"/>
      <point x="253" y="623"/>
      <point x="253" y="660" type="curve" smooth="yes"/>
      <point x="253" y="691"/>
      <point x="229" y="715"/>
      <point x="199" y="715" type="curve"/>
      <point x="163" y="715"/>
      <point x="131" y="683"/>
      <point x="131" y="646" type="curve" smooth="yes"/>
      <point x="131" y="615"/>
      <point x="154" y="591"/>
    </contour>
    <contour>
      <point x="210" y="509" type="line"/>
      <point x="113" y="509" type="line"/>
      <point x="5" y="0" type="line"/>
      <point x="102" y="0" type="line"/>
    </contour>
  </outline>
</glyph>
<glyph name="k" format="2">
  <advance width="515"/>
  <unicode hex="006B"/>
  <anchor x="211" y="0" name="bottom"/>
  <outline>
    <contour>
      <point x="5" y="0" type="line"/>
      <point x="102" y="0" type="line"/>
      <point x="153" y="238" type="line"/>
      <point x="352" y="0" type="line"/>
      <point x="472" y="0" type="line"/>
      <point x="251" y="259" type="line"/>
      <point x="571" y="509" type="line"/>
      <point x="445" y="509" type="line"/>
      <point x="163" y="287" type="line"/>
      <point x="256" y="722" type="line"/>
      <point x="154" y="700" type="line"/>
    </contour>
  </outline>
</glyph>
<glyph name="l" format="2">
  <advance width="215"/>
  <unicode hex="006C"/>
  <anchor x="202" y="700" name="top"/>
  <anchor x="53" y="0" name="bottom"/>
  <outline>
    <contour>
      <point x="256" y="722" type="line"/>
      <point x="154" y="700" type="line"/>
      <point x="5" y="0" type="line"/>
      <point x="102" y="0" type="line"/>
    </contour>
  </outline>
</glyph>
<glyph name="o" format="2">
  <advance width="591"/>
  <unicode hex="006F"/>
  <anchor x="320" y="509" name="top"/>
  <outline>
    <contour>
      <point x="35" y="234" type="curve"/>
      <point x="35" y="94"/>
      <point x="139" y="-10"/>
      <point x="278" y="-10" type="curve" smooth="yes"/>
      <point x="429" y="-10"/>
      <point x="556" y="121"/>
      <point x="556" y="276" type="curve"/>
      <point x="556" y="415"/>
      <point x="452" y="519"/>
      <point x="313" y="519" type="curve" smooth="yes"/>
      <point x="162" y="519"/>
      <point x="35" y="389"/>
    </contour>
    <contour>
      <point x="282" y="78" type="curve" smooth="yes"/>
      <point x="195" y="78"/>
      <point x="131" y="146"/>
      <point x="131" y="239" type="curve"/>
      <point x="131" y="344"/>
      <point x="212" y="431"/>
      <point x="309" y="431" type="curve" smooth="yes"/>
      <point x="395" y="431"/>
      <point x="460" y="363"/>
      <point x="460" y="271" type="curve"/>
      <point x="460" y="166"/>
      <point x="379" y="78"/>
    </contour>
  </outline>
</glyph>
<glyph name="p" format="2">
  <advance width="595"/>
  <unicode hex="0070"/>
  <outline>
    <contour>
      <point x="-39" y="-207" type="line"/>
      <point x="58" y="-207" type="line"/>
      <point x="114" y="58" type="line"/>
      <point x="156" y="15"/>
      <point x="213" y="-8"/>
      <point x="278" y="-8" type="curve" smooth="yes"/>
      <point x="434" y="-8"/>
      <point x="560" y="122"/>
      <point x="560" y="282" type="curve" smooth="yes"/>
      <point x="560" y="416"/>
      <point x="463" y="516"/>
      <point x="334" y="516" type="curve" smooth="yes"/>
      <point x="287" y="516"/>
      <point x="243" y="503"/>
      <point x="203" y="478" type="curve"/>
      <point x="210" y="509" type="line"/>
      <point x="113" y="509" type="line"/>
    </contour>
    <contour>
      <point x="311" y="430" type="curve" smooth="yes"/>
      <point x="400" y="430"/>
      <point x="464" y="364"/>
      <point x="464" y="273" type="curve" smooth="yes"/>
      <point x="464" y="165"/>
      <point x="381" y="79"/>
      <point x="275" y="79" type="curve" smooth="yes"/>
      <point x="215" y="79"/>
      <point x="161" y="107"/>
      <point x="134" y="150" type="curve"/>
      <point x="183" y="382" type="line"/>
      <point x="218" y="413"/>
      <point x="263" y="430"/>
    </contour>
  </outline>
</glyph>
<glyph name="r" format="2">
  <advance width="363"/>
  <unicode hex="0072"/>
  <anchor x="251" y="509" name="top"/>
  <anchor x="52" y="0" name="bottom"/>
  <outline>
    <contour>
      <point x="4" y="0" type="line"/>
      <point x="101" y="0" type="line"/>
      <point x="175" y="349" type="line"/>
      <point x="211" y="404"/>
      <point x="260" y="433"/>
      <point x="314" y="433" type="curve" smooth="yes"/>
      <point x="337" y="433"/>
      <point x="364" y="428"/>
      <point x="378" y="419" type="curve"/>
      <point x="396" y="509" type="line"/>
      <point x="384" y="516"/>
      <point x="361" y="520"/>
      <point x="339" y="520" type="curve" smooth="yes"/>
      <point x="284" y="520"/>
      <point x="235" y="495"/>
      <point x="197" y="451" type="curve"/>
      <point x="209" y="509" type="line"/>
      <point x="112" y="509" type="line"/>
    </contour>
  </outline>
</glyph>
<glyph name="t" format="2">
  <advance width="381"/>
  <unicode hex="0074"/>
  <anchor x="209" y="0" name="bottom"/>
  <outline>
    <contour>
      <point x="97" y="134" type="line" smooth="yes"/>
      <point x="78" y="43"/>
      <point x="125" y="-8"/>
      <point x="229" y="-8" type="curve" smooth="yes"/>
      <point x="256" y="-8"/>
      <point x="288" y="-4"/>
      <point x="311" y="2" type="curve"/>
      <point x="329" y="85" type="line"/>
      <point x="305" y="79"/>
      <point x="287" y="76"/>
      <point x="268" y="76" type="curve" smooth="yes"/>
      <point x="206" y="76"/>
      <point x="186" y="98"/>
      <point x="198" y="153" type="curve" smooth="yes"/>
      <point x="256" y="425" type="line"/>
      <point x="402" y="425" type="line"/>
      <point x="420" y="509" type="line"/>
      <point x="274" y="509" type="line"/>
      <point x="307" y="663" type="line"/>
      <point x="204" y="639" type="line"/>
      <point x="176" y="509" type="line"/>
      <point x="71" y="509" type="line"/>
      <point x="53" y="425" type="line"/>
      <point x="159" y="425" type="line"/>
    </contour>
  </outline>
</glyph>
<glyph name="u" format="2">
  <advance width="556"/>
  <unicode hex="0075"/>
  <anchor x="322" y="509" name="top"/>
  <anchor x="443" y="0" name="bottom"/>
  <outline>
    <contour>
      <point x="206" y="509" type="line"/>
      <point x="108" y="509" type="line"/>
      <point x="43" y="204" type="line" smooth="yes"/>
      <point x="18" y="82"/>
      <point x="86" y="-9"/>
      <point x="207" y="-9" type="curve" smooth="yes"/>
      <point x="262" y="-9"/>
      <point x="311" y="9"/>
      <point x="354" y="44" type="curve"/>
      <point x="345" y="0" type="line"/>
      <point x="443" y="0" type="line"/>
      <point x="551" y="509" type="line"/>
      <point x="453" y="509" type="line"/>
      <point x="374" y="138" type="line"/>
      <point x="339" y="98"/>
      <point x="295" y="77"/>
      <point x="245" y="77" type="curve" smooth="yes"/>
      <point x="166" y="77"/>
      <point x="125" y="132"/>
      <point x="143" y="214" type="curve" smooth="yes"/>
    </contour>
  </outline>
</glyph>
<glyph name="y" format="2">
  <advance width="527"/>
  <unicode hex="0079"/>
  <anchor x="308" y="509" name="top"/>
  <outline>
    <contour>
      <point x="118" y="-50" type="line" smooth="yes"/>
      <point x="87" y="-97"/>
      <point x="51" y="-120"/>
      <point x="7" y="-120" type="curve" smooth="yes"/>
      <point x="-10" y="-120"/>
      <point x="-27" y="-118"/>
      <point x="-38" y="-114" type="curve"/>
      <point x="-57" y="-201" type="line"/>
      <point x="-37" y="-206"/>
      <point x="-15" y="-210"/>
      <point x="8" y="-210" type="curve" smooth="yes"/>
      <point x="92" y="-210"/>
      <point x="152" y="-170"/>
      <point x="212" y="-74" type="curve" smooth="yes"/>
      <point x="579" y="509" type="line"/>
      <point x="471" y="509" type="line"/>
      <point x="226" y="114" type="line"/>
      <point x="161" y="509" type="line"/>
      <point x="57" y="509" type="line"/>
      <point x="150" y="0" type="line"/>
    </contour>
  </outline>
</glyph>
<glyph name="z" format="2">
  <advance width="468"/>
  <unicode hex="007A"/>
  <anchor x="275" y="509" name="top"/>
  <outline>
    <contour>
      <point x="-25" y="0" type="line"/>
      <point x="382" y="0" type="line"/>
      <point x="400" y="86" type="line"/>
      <point x="123" y="86" type="line"/>
      <point x="470" y="436" type="line"/>
      <point x="485" y="509" type="line"/>
      <point x="85" y="509" type="line"/>
      <point x="67" y="423" type="line"/>
      <point x="335" y="423" type="line"/>
      <point x="-10" y="74" type="line"/>
    </contour>
  </outline>
</glyph>
<glyph name="braceleft" format="2">
  <advance width="393"/>
  <unicode hex="007B"/>
  <outline>
    <contour>
      <point x="224" y="81" type="line" smooth="yes"/>
      <point x="271" y="157"/>
      <point x="240" y="222"/>
      <point x="169" y="245" type="curve"/>
      <point x="245" y="257"/>
      <point x="303" y="320"/>
      <point x="290" y="401" type="curve" smooth="yes"/>
      <point x="269" y="517" type="line" smooth="yes"/>
      <point x="256" y="590"/>
      <point x="292" y="632"/>
      <point x="350" y="632" type="curve" smooth="yes"/>
      <point x="370" y="632"/>
      <point x="393" y="627"/>
      <point x="414" y="617" type="curve"/>
      <point x="446" y="689" type="line"/>
      <point x="414" y="704"/>
      <point x="383" y="710"/>
      <point x="349" y="710" type="curve" smooth="yes"/>
      <point x="233" y="710"/>
      <point x="162" y="624"/>
      <point x="183" y="510" type="curve" smooth="yes"/>
      <point x="203" y="410" type="line" smooth="yes"/>
      <point x="217" y="340"/>
      <point x="177" y="287"/>
      <point x="107" y="287" type="curve" smooth="yes"/>
      <point x="27" y="287" type="line"/>
      <point x="11" y="210" type="line"/>
      <point x="90" y="210" type="line" smooth="yes"/>
      <point x="159" y="210"/>
      <point x="177" y="149"/>
      <point x="134" y="84" type="curve" smooth="yes"/>
      <point x="75" y="-4" type="line" smooth="yes"/>
      <point x="3" y="-114"/>
      <point x="46" y="-215"/>
      <point x="180" y="-215" type="curve" smooth="yes"/>
      <point x="206" y="-215"/>
      <point x="226" y="-212"/>
      <point x="256" y="-205" type="curve"/>
      <point x="255" y="-130" type="line"/>
      <point x="237" y="-135"/>
      <point x="222" y="-137"/>
      <point x="200" y="-137" type="curve" smooth="yes"/>
      <point x="140" y="-137"/>
      <point x="114" y="-91"/>
      <point x="158" y="-22" type="curve" smooth="yes"/>
    </contour>
  </outline>
</glyph>
<glyph name="bar" format="2">
  <advance width="288"/>
  <unicode hex="007C"/>
  <outline>
    <contour>
      <point x="0" y="-208" type="line"/>
      <point x="91" y="-208" type="line"/>
      <point x="284" y="700" type="line"/>
      <point x="193" y="700" type="line"/>
    </contour>
  </outline>
</glyph>
<glyph name="asciitilde" format="2">
  <advance width="578"/>
  <unicode hex="007E"/>
  <outline>
    <contour>
      <point x="303" y="428" type="line" smooth="yes"/>
      <point x="261" y="453"/>
      <point x="232" y="463"/>
      <point x="202" y="463" type="curve" smooth="yes"/>
      <point x="138" y="463"/>
      <point x="85" y="413"/>
      <point x="54" y="322" type="curve"/>
      <point x="122" y="306" type="line"/>
      <point x="141" y="359"/>
      <point x="168" y="384"/>
      <point x="202" y="384" type="curve" smooth="yes"/>
      <point x="218" y="384"/>
      <point x="231" y="379"/>
      <point x="263" y="361" type="curve" smooth="yes"/>
      <point x="335" y="319" type="line" smooth="yes"/>
      <point x="379" y="294"/>
      <point x="407" y="284"/>
      <point x="436" y="284" type="curve" smooth="yes"/>
      <point x="501" y="284"/>
      <point x="554" y="335"/>
      <point x="585" y="426" type="curve"/>
      <point x="516" y="442" type="line"/>
      <point x="497" y="389"/>
      <point x="471" y="363"/>
      <point x="436" y="363" type="curve" smooth="yes"/>
      <point x="420" y="363"/>
      <point x="406" y="368"/>
      <point x="375" y="386" type="curve" smooth="yes"/>
    </contour>
  </outline>
</glyph>
<glyph name="cent" format="2">
  <advance width="512"/>
  <unicode hex="00A2"/>
  <outline>
    <contour>
      <point x="184" y="-110" type="line"/>
      <point x="239" y="-110" type="line"/>
      <point x="260" y="-10" type="line"/>
      <point x="266" y="-10" type="line" smooth="yes"/>
      <point x="335" y="-10"/>
      <point x="401" y="15"/>
      <point x="459" y="63" type="curve"/>
      <point x="410" y="131" type="line"/>
      <point x="367" y="95"/>
      <point x="324" y="78"/>
      <point x="279" y="78" type="curve"/>
      <point x="352" y="424" type="line"/>
      <point x="388" y="414"/>
      <point x="420" y="391"/>
      <point x="446" y="355" type="curve"/>
      <point x="515" y="418" type="line"/>
      <point x="482" y="464"/>
      <point x="429" y="498"/>
      <point x="370" y="512" type="curve"/>
      <point x="393" y="619" type="line"/>
      <point x="339" y="619" type="line"/>
      <point x="318" y="518" type="line"/>
      <point x="314" y="518" type="line" smooth="yes"/>
      <point x="160" y="518"/>
      <point x="32" y="385"/>
      <point x="32" y="225" type="curve" smooth="yes"/>
      <point x="32" y="110"/>
      <point x="104" y="21"/>
      <point x="207" y="-3" type="curve"/>
    </contour>
    <contour>
      <point x="130" y="230" type="curve" smooth="yes"/>
      <point x="130" y="333"/>
      <point x="206" y="421"/>
      <point x="298" y="428" type="curve"/>
      <point x="226" y="87" type="line"/>
      <point x="169" y="107"/>
      <point x="130" y="162"/>
    </contour>
  </outline>
</glyph>
<glyph name="sterling" format="2">
  <advance width="621"/>
  <unicode hex="00A3"/>
  <outline>
    <contour>
      <point x="165" y="30" type="curve" smooth="yes"/>
      <point x="338" y="-18" type="line" smooth="yes"/>
      <point x="438" y="-47"/>
      <point x="509" y="-26"/>
      <point x="571" y="52" type="curve"/>
      <point x="508" y="103" type="line"/>
      <point x="471" y="56"/>
      <point x="431" y="43"/>
      <point x="373" y="59" type="curve" smooth="yes"/>
      <point x="200" y="107" type="line"/>
      <point x="230" y="131"/>
      <point x="247" y="171"/>
      <point x="248" y="221" type="curve" smooth="yes"/>
      <point x="249" y="301" type="line"/>
      <point x="432" y="301" type="line"/>
      <point x="447" y="371" type="line"/>
      <point x="250" y="371" type="line"/>
      <point x="252" y="462" type="line" smooth="yes"/>
      <point x="255" y="563"/>
      <point x="308" y="624"/>
      <point x="395" y="624" type="curve" smooth="yes"/>
      <point x="480" y="624"/>
      <point x="528" y="579"/>
      <point x="535" y="491" type="curve"/>
      <point x="621" y="512" type="line"/>
      <point x="607" y="638"/>
      <point x="528" y="707"/>
      <point x="398" y="707" type="curve" smooth="yes"/>
      <point x="259" y="707"/>
      <point x="162" y="606"/>
      <point x="159" y="458" type="curve" smooth="yes"/>
      <point x="157" y="371" type="line"/>
      <point x="69" y="371" type="line"/>
      <point x="54" y="301" type="line"/>
      <point x="156" y="301" type="line"/>
      <point x="154" y="197" type="line" smooth="yes"/>
      <point x="153" y="160"/>
      <point x="139" y="133"/>
      <point x="115" y="120" type="curve"/>
      <point x="54" y="119"/>
      <point x="4" y="91"/>
      <point x="-41" y="35" type="curve"/>
      <point x="22" y="-20" type="line"/>
      <point x="61" y="33"/>
      <point x="104" y="47"/>
    </contour>
  </outline>
</glyph>
<glyph name="yen" format="2">
  <advance width="656"/>
  <unicode hex="00A5"/>
  <outline>
    <contour>
      <point x="220" y="0" type="line"/>
      <point x="323" y="0" type="line"/>
      <point x="356" y="152" type="line"/>
      <point x="534" y="152" type="line"/>
      <point x="547" y="212" type="line"/>
      <point x="368" y="212" type="line"/>
      <point x="382" y="275" type="line"/>
      <point x="388" y="282" type="line"/>
      <point x="562" y="282" type="line"/>
      <point x="575" y="342" type="line"/>
      <point x="440" y="342" type="line"/>
      <point x="749" y="700" type="line"/>
      <point x="626" y="700" type="line"/>
      <point x="346" y="371" type="line"/>
      <point x="203" y="700" type="line"/>
      <point x="94" y="700" type="line"/>
      <point x="251" y="342" type="line"/>
      <point x="114" y="342" type="line"/>
      <point x="101" y="282" type="line"/>
      <point x="277" y="282" type="line"/>
      <point x="279" y="278" type="line"/>
      <point x="265" y="212" type="line"/>
      <point x="86" y="212" type="line"/>
      <point x="73" y="152" type="line"/>
      <point x="252" y="152" type="line"/>
    </contour>
  </outline>
</glyph>
<glyph name="uni00A6" format="2">
  <advance width="293"/>
  <unicode hex="00A6"/>
  <outline>
    <contour>
      <point x="199" y="286" type="line"/>
      <point x="287" y="700" type="line"/>
      <point x="196" y="700" type="line"/>
      <point x="107" y="286" type="line"/>
    </contour>
    <contour>
      <point x="3" y="-208" type="line"/>
      <point x="94" y="-208" type="line"/>
      <point x="182" y="206" type="line"/>
      <point x="90" y="206" type="line"/>
    </contour>
  </outline>
</glyph>
<glyph name="section" format="2">
  <advance width="559"/>
  <unicode hex="00A7"/>
  <outline>
    <contour>
      <point x="421" y="101" type="curve" smooth="yes"/>
      <point x="421" y="130"/>
      <point x="412" y="154"/>
      <point x="393" y="176" type="curve"/>
      <point x="476" y="195"/>
      <point x="527" y="251"/>
      <point x="527" y="328" type="curve" smooth="yes"/>
      <point x="527" y="381"/>
      <point x="496" y="417"/>
      <point x="414" y="457" type="curve" smooth="yes"/>
      <point x="314" y="505" type="line" smooth="yes"/>
      <point x="279" y="522"/>
      <point x="263" y="542"/>
      <point x="263" y="569" type="curve" smooth="yes"/>
      <point x="263" y="612"/>
      <point x="297" y="640"/>
      <point x="349" y="640" type="curve" smooth="yes"/>
      <point x="396" y="640"/>
      <point x="448" y="619"/>
      <point x="503" y="577" type="curve"/>
      <point x="555" y="638" type="line"/>
      <point x="496" y="684"/>
      <point x="424" y="710"/>
      <point x="353" y="710" type="curve" smooth="yes"/>
      <point x="248" y="710"/>
      <point x="173" y="647"/>
      <point x="173" y="557" type="curve" smooth="yes"/>
      <point x="173" y="527"/>
      <point x="182" y="503"/>
      <point x="202" y="481" type="curve"/>
      <point x="119" y="462"/>
      <point x="67" y="407"/>
      <point x="67" y="331" type="curve" smooth="yes"/>
      <point x="67" y="277"/>
      <point x="98" y="241"/>
      <point x="180" y="201" type="curve" smooth="yes"/>
      <point x="279" y="153" type="line" smooth="yes"/>
      <point x="315" y="136"/>
      <point x="331" y="116"/>
      <point x="331" y="89" type="curve" smooth="yes"/>
      <point x="331" y="47"/>
      <point x="297" y="18"/>
      <point x="245" y="18" type="curve" smooth="yes"/>
      <point x="198" y="18"/>
      <point x="146" y="39"/>
      <point x="90" y="81" type="curve"/>
      <point x="39" y="21" type="line"/>
      <point x="98" y="-26"/>
      <point x="170" y="-51"/>
      <point x="240" y="-51" type="curve" smooth="yes"/>
      <point x="346" y="-51"/>
      <point x="421" y="11"/>
    </contour>
    <contour>
      <point x="322" y="225" type="line" smooth="yes"/>
      <point x="217" y="274" type="line" smooth="yes"/>
      <point x="172" y="296"/>
      <point x="152" y="319"/>
      <point x="152" y="350" type="curve" smooth="yes"/>
      <point x="152" y="398"/>
      <point x="201" y="432"/>
      <point x="269" y="434" type="curve"/>
      <point x="271" y="433" type="line" smooth="yes"/>
      <point x="377" y="384" type="line" smooth="yes"/>
      <point x="421" y="362"/>
      <point x="442" y="339"/>
      <point x="442" y="309" type="curve" smooth="yes"/>
      <point x="442" y="260"/>
      <point x="393" y="225"/>
      <point x="326" y="223" type="curve"/>
    </contour>
  </outline>
</glyph>
<glyph name="copyright" format="2">
  <advance width="784"/>
  <unicode hex="00A9"/>
  <outline>
    <contour>
      <point x="57" y="309" type="curve" smooth="yes"/>
      <point x="57" y="126"/>
      <point x="194" y="-10"/>
      <point x="380" y="-10" type="curve" smooth="yes"/>
      <point x="591" y="-10"/>
      <point x="768" y="172"/>
      <point x="768" y="388" type="curve" smooth="yes"/>
      <point x="768" y="572"/>
      <point x="631" y="708"/>
      <point x="445" y="708" type="curve" smooth="yes"/>
      <point x="234" y="708"/>
      <point x="57" y="526"/>
    </contour>
    <contour>
      <point x="714" y="383" type="curve" smooth="yes"/>
      <point x="714" y="199"/>
      <point x="562" y="40"/>
      <point x="383" y="40" type="curve" smooth="yes"/>
      <point x="227" y="40"/>
      <point x="112" y="157"/>
      <point x="112" y="315" type="curve" smooth="yes"/>
      <point x="112" y="499"/>
      <point x="264" y="657"/>
      <point x="441" y="657" type="curve" smooth="yes"/>
      <point x="598" y="657"/>
      <point x="714" y="541"/>
    </contour>
    <contour>
      <point x="236" y="326" type="curve" smooth="yes"/>
      <point x="236" y="233"/>
      <point x="305" y="165"/>
      <point x="399" y="165" type="curve" smooth="yes"/>
      <point x="446" y="165"/>
      <point x="495" y="183"/>
      <point x="532" y="214" type="curve"/>
      <point x="500" y="265" type="line"/>
      <point x="470" y="242"/>
      <point x="440" y="230"/>
      <point x="409" y="230" type="curve" smooth="yes"/>
      <point x="351" y="230"/>
      <point x="309" y="273"/>
      <point x="309" y="332" type="curve" smooth="yes"/>
      <point x="309" y="406"/>
      <point x="368" y="471"/>
      <point x="438" y="471" type="curve" smooth="yes"/>
      <point x="475" y="471"/>
      <point x="510" y="451"/>
      <point x="533" y="417" type="curve"/>
      <point x="587" y="462" type="line"/>
      <point x="558" y="507"/>
      <point x="501" y="536"/>
      <point x="442" y="536" type="curve" smooth="yes"/>
      <point x="332" y="536"/>
      <point x="236" y="438"/>
    </contour>
  </outline>
</glyph>
<glyph name="ordfeminine" format="2">
  <advance width="412"/>
  <unicode hex="00AA"/>
  <outline>
    <contour>
      <point x="202" y="314" type="curve" smooth="yes"/>
      <point x="240" y="314"/>
      <point x="274" y="324"/>
      <point x="307" y="346" type="curve"/>
      <point x="301" y="319" type="line"/>
      <point x="378" y="319" type="line"/>
      <point x="429" y="555" type="line" smooth="yes"/>
      <point x="449" y="651"/>
      <point x="394" y="709"/>
      <point x="283" y="709" type="curve" smooth="yes"/>
      <point x="238" y="709"/>
      <point x="190" y="699"/>
      <point x="135" y="677" type="curve"/>
      <point x="155" y="615" type="line"/>
      <point x="205" y="634"/>
      <point x="237" y="642"/>
      <point x="266" y="642" type="curve" smooth="yes"/>
      <point x="335" y="642"/>
      <point x="363" y="613"/>
      <point x="351" y="553" type="curve" smooth="yes"/>
      <point x="344" y="521" type="line"/>
      <point x="311" y="537"/>
      <point x="270" y="547"/>
      <point x="231" y="547" type="curve" smooth="yes"/>
      <point x="134" y="547"/>
      <point x="71" y="498"/>
      <point x="71" y="421" type="curve" smooth="yes"/>
      <point x="71" y="356"/>
      <point x="123" y="314"/>
    </contour>
    <contour>
      <point x="148" y="428" type="curve" smooth="yes"/>
      <point x="148" y="466"/>
      <point x="183" y="492"/>
      <point x="235" y="492" type="curve" smooth="yes"/>
      <point x="272" y="492"/>
      <point x="305" y="483"/>
      <point x="332" y="466" type="curve"/>
      <point x="319" y="402" type="line"/>
      <point x="291" y="382"/>
      <point x="260" y="372"/>
      <point x="227" y="372" type="curve" smooth="yes"/>
      <point x="177" y="372"/>
      <point x="148" y="393"/>
    </contour>
  </outline>
</glyph>
<glyph name="uni00AC" format="2">
  <advance width="552"/>
  <unicode hex="00AC"/>
  <outline>
    <contour>
      <point x="61" y="326" type="line"/>
      <point x="43" y="239" type="line"/>
      <point x="409" y="239" type="line"/>
      <point x="358" y="0" type="line"/>
      <point x="452" y="0" type="line"/>
      <point x="521" y="326" type="line"/>
    </contour>
  </outline>
</glyph>
<glyph name="macron" format="2">
  <advance width="508"/>
  <unicode hex="00AF"/>
  <anchor x="308" y="509" name="_top"/>
  <outline>
    <contour>
      <point x="496" y="690" type="line"/>
      <point x="203" y="690" type="line"/>
      <point x="189" y="622" type="line"/>
      <point x="482" y="622" type="line"/>
    </contour>
  </outline>
</glyph>
<glyph name="plusminus" format="2">
  <advance width="525"/>
  <unicode hex="00B1"/>
  <outline>
    <contour>
      <point x="287" y="183" type="line"/>
      <point x="323" y="352" type="line"/>
      <point x="495" y="352" type="line"/>
      <point x="512" y="432" type="line"/>
      <point x="340" y="432" type="line"/>
      <point x="375" y="598" type="line"/>
      <point x="296" y="598" type="line"/>
      <point x="261" y="432" type="line"/>
      <point x="88" y="432" type="line"/>
      <point x="71" y="352" type="line"/>
      <point x="244" y="352" type="line"/>
      <point x="208" y="183" type="line"/>
    </contour>
    <contour>
      <point x="437" y="79" type="line"/>
      <point x="13" y="79" type="line"/>
      <point x="-4" y="-1" type="line"/>
      <point x="420" y="-1" type="line"/>
    </contour>
  </outline>
</glyph>
<glyph name="acute" format="2">
  <advance width="508"/>
  <unicode hex="00B4"/>
  <anchor x="272" y="509" name="_top"/>
  <outline>
    <contour>
      <point x="349" y="725" type="line"/>
      <point x="232" y="603" type="line"/>
      <point x="318" y="603" type="line"/>
      <point x="469" y="725" type="line"/>
    </contour>
  </outline>
</glyph>
<glyph name="ordmasculine" format="2">
  <advance width="463"/>
  <unicode hex="00BA"/>
  <outline>
    <contour>
      <point x="88" y="495" type="curve"/>
      <point x="88" y="390"/>
      <point x="167" y="311"/>
      <point x="273" y="311" type="curve" smooth="yes"/>
      <point x="387" y="311"/>
      <point x="483" y="409"/>
      <point x="483" y="526" type="curve"/>
      <point x="483" y="631"/>
      <point x="404" y="710"/>
      <point x="299" y="710" type="curve" smooth="yes"/>
      <point x="184" y="710"/>
      <point x="88" y="612"/>
    </contour>
    <contour>
      <point x="405" y="522" type="curve"/>
      <point x="405" y="446"/>
      <point x="347" y="382"/>
      <point x="277" y="382" type="curve" smooth="yes"/>
      <point x="213" y="382"/>
      <point x="166" y="432"/>
      <point x="166" y="499" type="curve"/>
      <point x="166" y="575"/>
      <point x="225" y="639"/>
      <point x="295" y="639" type="curve" smooth="yes"/>
      <point x="358" y="639"/>
      <point x="405" y="590"/>
    </contour>
  </outline>
</glyph>
<glyph name="multiply" format="2">
  <advance width="533"/>
  <unicode hex="00D7"/>
  <outline>
    <contour>
      <point x="97" y="152" type="line"/>
      <point x="280" y="307" type="line"/>
      <point x="396" y="153" type="line"/>
      <point x="454" y="201" type="line"/>
      <point x="337" y="356" type="line"/>
      <point x="521" y="511" type="line"/>
      <point x="479" y="564" type="line"/>
      <point x="297" y="409" type="line"/>
      <point x="180" y="564" type="line"/>
      <point x="122" y="517" type="line"/>
      <point x="240" y="361" type="line"/>
      <point x="56" y="205" type="line"/>
    </contour>
  </outline>
</glyph>
<glyph name="ae" format="2">
  <advance width="887"/>
  <unicode hex="00E6"/>
  <outline>
    <contour>
      <point x="204" y="-7" type="curve"/>
      <point x="279" y="-7"/>
      <point x="345" y="20"/>
      <point x="410" y="78" type="curve"/>
      <point x="454" y="23"/>
      <point x="525" y="-10"/>
      <point x="610" y="-10" type="curve" smooth="yes"/>
      <point x="679" y="-10"/>
      <point x="736" y="8"/>
      <point x="795" y="49" type="curve"/>
      <point x="742" y="115" type="line"/>
      <point x="708" y="89"/>
      <point x="662" y="75"/>
      <point x="615" y="75" type="curve" smooth="yes"/>
      <point x="526" y="75"/>
      <point x="461" y="137"/>
      <point x="454" y="223" type="curve"/>
      <point x="848" y="223" type="line"/>
      <point x="852" y="250"/>
      <point x="852" y="261"/>
      <point x="852" y="275" type="curve" smooth="yes"/>
      <point x="852" y="415"/>
      <point x="758" y="517"/>
      <point x="629" y="517" type="curve" smooth="yes"/>
      <point x="563" y="517"/>
      <point x="499" y="488"/>
      <point x="450" y="438" type="curve"/>
      <point x="423" y="489"/>
      <point x="364" y="518"/>
      <point x="280" y="518" type="curve" smooth="yes"/>
      <point x="221" y="518"/>
      <point x="159" y="505"/>
      <point x="85" y="475" type="curve"/>
      <point x="111" y="399" type="line"/>
      <point x="175" y="424"/>
      <point x="218" y="435"/>
      <point x="258" y="435" type="curve" smooth="yes"/>
      <point x="347" y="435"/>
      <point x="387" y="393"/>
      <point x="371" y="315" type="curve" smooth="yes"/>
      <point x="363" y="276" type="line"/>
      <point x="321" y="293"/>
      <point x="274" y="302"/>
      <point x="226" y="302" type="curve" smooth="yes"/>
      <point x="101" y="302"/>
      <point x="21" y="239"/>
      <point x="21" y="139" type="curve" smooth="yes"/>
      <point x="21" y="51"/>
      <point x="93" y="-7"/>
    </contour>
    <contour>
      <point x="623" y="432" type="curve" smooth="yes"/>
      <point x="697" y="432"/>
      <point x="752" y="376"/>
      <point x="760" y="297" type="curve"/>
      <point x="462" y="297" type="line"/>
      <point x="485" y="375"/>
      <point x="548" y="432"/>
    </contour>
    <contour>
      <point x="114" y="146" type="curve" smooth="yes"/>
      <point x="114" y="197"/>
      <point x="163" y="233"/>
      <point x="232" y="233" type="curve" smooth="yes"/>
      <point x="280" y="233"/>
      <point x="326" y="223"/>
      <point x="361" y="203" type="curve"/>
      <point x="363" y="177"/>
      <point x="370" y="152"/>
      <point x="379" y="130" type="curve"/>
      <point x="329" y="88"/>
      <point x="278" y="67"/>
      <point x="222" y="67" type="curve"/>
      <point x="155" y="67"/>
      <point x="114" y="97"/>
    </contour>
  </outline>
</glyph>
<glyph name="ccedilla" format="2">
  <advance width="509"/>
  <unicode hex="00E7"/>
  <outline>
    <contour>
      <point x="277" y="78" type="curve" smooth="yes"/>
      <point x="193" y="78"/>
      <point x="130" y="143"/>
      <point x="130" y="230" type="curve" smooth="yes"/>
      <point x="130" y="338"/>
      <point x="213" y="429"/>
      <point x="311" y="429" type="curve" smooth="yes"/>
      <point x="365" y="429"/>
      <point x="411" y="404"/>
      <point x="446" y="355" type="curve"/>
      <point x="515" y="418" type="line"/>
      <point x="472" y="479"/>
      <point x="394" y="518"/>
      <point x="314" y="518" type="curve" smooth="yes"/>
      <point x="160" y="518"/>
      <point x="32" y="385"/>
      <point x="32" y="225" type="curve" smooth="yes"/>
      <point x="32" y="101"/>
      <point x="116" y="7"/>
      <point x="233" y="-8" type="curve"/>
      <point x="191" y="-92" type="line"/>
      <point x="224" y="-92" type="line" smooth="yes"/>
      <point x="259" y="-92"/>
      <point x="280" y="-107"/>
      <point x="280" y="-132" type="curve" smooth="yes"/>
      <point x="280" y="-160"/>
      <point x="254" y="-179"/>
      <point x="216" y="-179" type="curve" smooth="yes"/>
      <point x="186" y="-179"/>
      <point x="160" y="-168"/>
      <point x="139" y="-145" type="curve"/>
      <point x="98" y="-181" type="line"/>
      <point x="126" y="-213"/>
      <point x="166" y="-230"/>
      <point x="214" y="-230" type="curve" smooth="yes"/>
      <point x="286" y="-230"/>
      <point x="341" y="-185"/>
      <point x="341" y="-127" type="curve" smooth="yes"/>
      <point x="341" y="-85"/>
      <point x="312" y="-57"/>
      <point x="263" y="-51" type="curve"/>
      <point x="285" y="-9" type="line"/>
      <point x="347" y="-5"/>
      <point x="406" y="19"/>
      <point x="459" y="63" type="curve"/>
      <point x="410" y="131" type="line"/>
      <point x="366" y="95"/>
      <point x="323" y="78"/>
    </contour>
  </outline>
</glyph>
<glyph name="eth" format="2">
  <advance width="586"/>
  <unicode hex="00F0"/>
  <outline>
    <contour>
      <point x="308" y="525" type="line"/>
      <point x="412" y="575" type="line"/>
      <point x="447" y="524"/>
      <point x="466" y="463"/>
      <point x="467" y="397" type="curve"/>
      <point x="436" y="454"/>
      <point x="377" y="489"/>
      <point x="301" y="489" type="curve" smooth="yes"/>
      <point x="155" y="489"/>
      <point x="35" y="367"/>
      <point x="35" y="219" type="curve" smooth="yes"/>
      <point x="35" y="85"/>
      <point x="129" y="-9"/>
      <point x="263" y="-9" type="curve" smooth="yes"/>
      <point x="437" y="-9"/>
      <point x="561" y="154"/>
      <point x="561" y="382" type="curve" smooth="yes"/>
      <point x="561" y="472"/>
      <point x="539" y="550"/>
      <point x="496" y="614" type="curve"/>
      <point x="596" y="662" type="line"/>
      <point x="569" y="722" type="line"/>
      <point x="453" y="667" type="line"/>
      <point x="423" y="697"/>
      <point x="386" y="724"/>
      <point x="344" y="746" type="curve"/>
      <point x="285" y="681" type="line"/>
      <point x="316" y="667"/>
      <point x="344" y="648"/>
      <point x="368" y="626" type="curve"/>
      <point x="282" y="585" type="line"/>
    </contour>
    <contour>
      <point x="267" y="80" type="curve" smooth="yes"/>
      <point x="187" y="80"/>
      <point x="128" y="139"/>
      <point x="128" y="222" type="curve" smooth="yes"/>
      <point x="128" y="321"/>
      <point x="209" y="405"/>
      <point x="303" y="405" type="curve" smooth="yes"/>
      <point x="382" y="405"/>
      <point x="441" y="344"/>
      <point x="441" y="263" type="curve" smooth="yes"/>
      <point x="441" y="165"/>
      <point x="360" y="80"/>
    </contour>
  </outline>
</glyph>
<glyph name="oslash" format="2">
  <advance width="591"/>
  <unicode hex="00F8"/>
  <outline>
    <contour>
      <point x="-4" y="0" type="line"/>
      <point x="78" y="0" type="line"/>
      <point x="122" y="43" type="line"/>
      <point x="164" y="10"/>
      <point x="218" y="-10"/>
      <point x="278" y="-10" type="curve" smooth="yes"/>
      <point x="429" y="-10"/>
      <point x="556" y="121"/>
      <point x="556" y="276" type="curve"/>
      <point x="556" y="333"/>
      <point x="539" y="384"/>
      <point x="509" y="424" type="curve"/>
      <point x="595" y="509" type="line"/>
      <point x="512" y="509" type="line"/>
      <point x="468" y="466" type="line"/>
      <point x="427" y="499"/>
      <point x="373" y="519"/>
      <point x="313" y="519" type="curve" smooth="yes"/>
      <point x="162" y="519"/>
      <point x="35" y="389"/>
      <point x="35" y="234" type="curve"/>
      <point x="35" y="177"/>
      <point x="52" y="126"/>
      <point x="82" y="85" type="curve"/>
    </contour>
    <contour>
      <point x="131" y="239" type="curve"/>
      <point x="131" y="344"/>
      <point x="212" y="431"/>
      <point x="309" y="431" type="curve" smooth="yes"/>
      <point x="344" y="431"/>
      <point x="376" y="420"/>
      <point x="401" y="400" type="curve"/>
      <point x="152" y="154" type="line"/>
      <point x="139" y="178"/>
      <point x="131" y="207"/>
    </contour>
    <contour>
      <point x="282" y="78" type="curve" smooth="yes"/>
      <point x="246" y="78"/>
      <point x="214" y="89"/>
      <point x="189" y="109" type="curve"/>
      <point x="439" y="355" type="line"/>
      <point x="452" y="331"/>
      <point x="460" y="303"/>
      <point x="460" y="271" type="curve"/>
      <point x="460" y="166"/>
      <point x="379" y="78"/>
    </contour>
  </outline>
</glyph>
<glyph name="Aogonek" format="2">
  <advance width="687"/>
  <unicode hex="0104"/>
  <outline>
    <contour>
      <point x="-53" y="0" type="line"/>
      <point x="60" y="0" type="line"/>
      <point x="182" y="205" type="line"/>
      <point x="489" y="205" type="line"/>
      <point x="526" y="0" type="line"/>
      <point x="564" y="0" type="line"/>
      <point x="484" y="-46"/>
      <point x="444" y="-95"/>
      <point x="444" y="-149" type="curve" smooth="yes"/>
      <point x="444" y="-193"/>
      <point x="479" y="-222"/>
      <point x="532" y="-222" type="curve" smooth="yes"/>
      <point x="557" y="-222"/>
      <point x="583" y="-215"/>
      <point x="605" y="-204" type="curve"/>
      <point x="600" y="-155" type="line"/>
      <point x="587" y="-162"/>
      <point x="571" y="-166"/>
      <point x="557" y="-166" type="curve" smooth="yes"/>
      <point x="528" y="-166"/>
      <point x="510" y="-150"/>
      <point x="510" y="-126" type="curve" smooth="yes"/>
      <point x="510" y="-83"/>
      <point x="549" y="-44"/>
      <point x="633" y="0" type="curve"/>
      <point x="498" y="700" type="line"/>
      <point x="376" y="700" type="line"/>
    </contour>
    <contour>
      <point x="234" y="292" type="line"/>
      <point x="418" y="600" type="line"/>
      <point x="473" y="292" type="line"/>
    </contour>
  </outline>
</glyph>
<glyph name="aogonek" format="2">
  <advance width="522"/>
  <unicode hex="0105"/>
  <outline>
    <contour>
      <point x="187" y="-7" type="curve" smooth="yes"/>
      <point x="238" y="-7"/>
      <point x="283" y="7"/>
      <point x="327" y="37" type="curve"/>
      <point x="319" y="0" type="line"/>
      <point x="346" y="0" type="line"/>
      <point x="266" y="-46"/>
      <point x="226" y="-95"/>
      <point x="226" y="-149" type="curve" smooth="yes"/>
      <point x="226" y="-193"/>
      <point x="261" y="-222"/>
      <point x="314" y="-222" type="curve" smooth="yes"/>
      <point x="339" y="-222"/>
      <point x="365" y="-215"/>
      <point x="387" y="-204" type="curve"/>
      <point x="382" y="-155" type="line"/>
      <point x="369" y="-162"/>
      <point x="353" y="-166"/>
      <point x="339" y="-166" type="curve" smooth="yes"/>
      <point x="310" y="-166"/>
      <point x="292" y="-150"/>
      <point x="292" y="-126" type="curve" smooth="yes"/>
      <point x="292" y="-83"/>
      <point x="331" y="-44"/>
      <point x="415" y="0" type="curve"/>
      <point x="482" y="315" type="line" smooth="yes"/>
      <point x="509" y="442"/>
      <point x="437" y="518"/>
      <point x="291" y="518" type="curve" smooth="yes"/>
      <point x="234" y="518"/>
      <point x="171" y="505"/>
      <point x="98" y="475" type="curve"/>
      <point x="124" y="399" type="line"/>
      <point x="186" y="424"/>
      <point x="231" y="435"/>
      <point x="272" y="435" type="curve" smooth="yes"/>
      <point x="365" y="435"/>
      <point x="403" y="394"/>
      <point x="386" y="312" type="curve" smooth="yes"/>
      <point x="376" y="267" type="line"/>
      <point x="332" y="289"/>
      <point x="278" y="302"/>
      <point x="223" y="302" type="curve" smooth="yes"/>
      <point x="94" y="302"/>
      <point x="13" y="237"/>
      <point x="13" y="135" type="curve" smooth="yes"/>
      <point x="13" y="49"/>
      <point x="81" y="-7"/>
    </contour>
    <contour>
      <point x="106" y="144" type="curve" smooth="yes"/>
      <point x="106" y="197"/>
      <point x="155" y="234"/>
      <point x="227" y="234" type="curve" smooth="yes"/>
      <point x="280" y="234"/>
      <point x="325" y="221"/>
      <point x="361" y="196" type="curve"/>
      <point x="342" y="108" type="line"/>
      <point x="304" y="81"/>
      <point x="262" y="67"/>
      <point x="216" y="67" type="curve" smooth="yes"/>
      <point x="147" y="67"/>
      <point x="106" y="96"/>
    </contour>
  </outline>
</glyph>
<glyph name="dcroat" format="2">
  <advance width="594"/>
  <unicode hex="0111"/>
  <outline>
    <contour>
      <point x="385" y="0" type="line"/>
      <point x="482" y="0" type="line"/>
      <point x="606" y="583" type="line"/>
      <point x="664" y="583" type="line"/>
      <point x="679" y="652" type="line"/>
      <point x="620" y="652" type="line"/>
      <point x="635" y="722" type="line"/>
      <point x="533" y="700" type="line"/>
      <point x="523" y="652" type="line"/>
      <point x="373" y="652" type="line"/>
      <point x="359" y="583" type="line"/>
      <point x="508" y="583" type="line"/>
      <point x="481" y="453" type="line"/>
      <point x="440" y="493"/>
      <point x="381" y="516"/>
      <point x="316" y="516" type="curve" smooth="yes"/>
      <point x="161" y="516"/>
      <point x="35" y="387"/>
      <point x="35" y="227" type="curve" smooth="yes"/>
      <point x="35" y="93"/>
      <point x="132" y="-8"/>
      <point x="260" y="-8" type="curve" smooth="yes"/>
      <point x="307" y="-8"/>
      <point x="352" y="5"/>
      <point x="392" y="31" type="curve"/>
    </contour>
    <contour>
      <point x="131" y="235" type="curve" smooth="yes"/>
      <point x="131" y="343"/>
      <point x="215" y="430"/>
      <point x="320" y="430" type="curve" smooth="yes"/>
      <point x="379" y="430"/>
      <point x="434" y="403"/>
      <point x="461" y="361" type="curve"/>
      <point x="411" y="126" type="line"/>
      <point x="376" y="95"/>
      <point x="332" y="78"/>
      <point x="284" y="78" type="curve" smooth="yes"/>
      <point x="195" y="78"/>
      <point x="131" y="144"/>
    </contour>
  </outline>
</glyph>
<glyph name="Eogonek" format="2">
  <advance width="616"/>
  <unicode hex="0118"/>
  <outline>
    <contour>
      <point x="16" y="0" type="line"/>
      <point x="456" y="0" type="line"/>
      <point x="376" y="-46"/>
      <point x="336" y="-95"/>
      <point x="336" y="-149" type="curve" smooth="yes"/>
      <point x="336" y="-193"/>
      <point x="371" y="-222"/>
      <point x="424" y="-222" type="curve" smooth="yes"/>
      <point x="449" y="-222"/>
      <point x="475" y="-215"/>
      <point x="497" y="-204" type="curve"/>
      <point x="492" y="-155" type="line"/>
      <point x="479" y="-162"/>
      <point x="463" y="-166"/>
      <point x="449" y="-166" type="curve" smooth="yes"/>
      <point x="420" y="-166"/>
      <point x="402" y="-150"/>
      <point x="402" y="-126" type="curve" smooth="yes"/>
      <point x="402" y="-83"/>
      <point x="441" y="-44"/>
      <point x="525" y="0" type="curve"/>
      <point x="545" y="92" type="line"/>
      <point x="138" y="92" type="line"/>
      <point x="184" y="308" type="line"/>
      <point x="448" y="308" type="line"/>
      <point x="467" y="398" type="line"/>
      <point x="203" y="398" type="line"/>
      <point x="247" y="608" type="line"/>
      <point x="651" y="608" type="line"/>
      <point x="670" y="700" type="line"/>
      <point x="165" y="700" type="line"/>
    </contour>
  </outline>
</glyph>
<glyph name="eogonek" format="2">
  <advance width="562"/>
  <unicode hex="0119"/>
  <outline>
    <contour>
      <point x="338" y="-204" type="curve"/>
      <point x="333" y="-155" type="line"/>
      <point x="320" y="-162"/>
      <point x="304" y="-166"/>
      <point x="290" y="-166" type="curve" smooth="yes"/>
      <point x="261" y="-166"/>
      <point x="243" y="-150"/>
      <point x="243" y="-126" type="curve" smooth="yes"/>
      <point x="243" y="-83"/>
      <point x="282" y="-44"/>
      <point x="365" y="0" type="curve"/>
      <point x="401" y="9"/>
      <point x="435" y="25"/>
      <point x="470" y="49" type="curve"/>
      <point x="417" y="115" type="line"/>
      <point x="383" y="89"/>
      <point x="338" y="75"/>
      <point x="291" y="75" type="curve" smooth="yes"/>
      <point x="202" y="75"/>
      <point x="137" y="137"/>
      <point x="130" y="223" type="curve"/>
      <point x="524" y="223" type="line"/>
      <point x="527" y="250"/>
      <point x="527" y="261"/>
      <point x="527" y="275" type="curve" smooth="yes"/>
      <point x="527" y="415"/>
      <point x="433" y="517"/>
      <point x="305" y="517" type="curve" smooth="yes"/>
      <point x="156" y="517"/>
      <point x="34" y="387"/>
      <point x="34" y="231" type="curve" smooth="yes"/>
      <point x="34" y="93"/>
      <point x="137" y="-8"/>
      <point x="280" y="-10" type="curve"/>
      <point x="211" y="-53"/>
      <point x="177" y="-99"/>
      <point x="177" y="-149" type="curve" smooth="yes"/>
      <point x="177" y="-193"/>
      <point x="212" y="-222"/>
      <point x="265" y="-222" type="curve" smooth="yes"/>
      <point x="290" y="-222"/>
      <point x="316" y="-215"/>
    </contour>
    <contour>
      <point x="298" y="432" type="curve" smooth="yes"/>
      <point x="372" y="432"/>
      <point x="427" y="376"/>
      <point x="435" y="297" type="curve"/>
      <point x="138" y="297" type="line"/>
      <point x="160" y="375"/>
      <point x="223" y="432"/>
    </contour>
  </outline>
</glyph>
<glyph name="hcircumflex" format="2">
  <advance width="557"/>
  <unicode hex="0125"/>
  <outline>
    <contour>
      <point x="300" y="791" type="line"/>
      <point x="377" y="791" type="line"/>
      <point x="298" y="918" type="line"/>
      <point x="195" y="918" type="line"/>
      <point x="62" y="791" type="line"/>
      <point x="144" y="791" type="line"/>
      <point x="239" y="869" type="line"/>
    </contour>
    <contour>
      <point x="5" y="0" type="line"/>
      <point x="102" y="0" type="line"/>
      <point x="180" y="371" type="line"/>
      <point x="216" y="411"/>
      <point x="261" y="432"/>
      <point x="311" y="432" type="curve" smooth="yes"/>
      <point x="389" y="432"/>
      <point x="430" y="378"/>
      <point x="412" y="295" type="curve" smooth="yes"/>
      <point x="350" y="0" type="line"/>
      <point x="447" y="0" type="line"/>
      <point x="512" y="306" type="line" smooth="yes"/>
      <point x="538" y="428"/>
      <point x="469" y="518"/>
      <point x="348" y="518" type="curve" smooth="yes"/>
      <point x="293" y="518"/>
      <point x="243" y="500"/>
      <point x="200" y="465" type="curve"/>
      <point x="250" y="700" type="line"/>
      <point x="154" y="700" type="line"/>
    </contour>
  </outline>
</glyph>
<glyph name="Iogonek" format="2">
  <advance width="243"/>
  <unicode hex="012E"/>
  <outline>
    <contour>
      <point x="16" y="0" type="line"/>
      <point x="49" y="0" type="line"/>
      <point x="-31" y="-46"/>
      <point x="-71" y="-95"/>
      <point x="-71" y="-149" type="curve" smooth="yes"/>
      <point x="-71" y="-193"/>
      <point x="-36" y="-222"/>
      <point x="17" y="-222" type="curve" smooth="yes"/>
      <point x="42" y="-222"/>
      <point x="68" y="-215"/>
      <point x="90" y="-204" type="curve"/>
      <point x="85" y="-155" type="line"/>
      <point x="72" y="-162"/>
      <point x="56" y="-166"/>
      <point x="42" y="-166" type="curve" smooth="yes"/>
      <point x="13" y="-166"/>
      <point x="-5" y="-150"/>
      <point x="-5" y="-126" type="curve" smooth="yes"/>
      <point x="-5" y="-83"/>
      <point x="34" y="-44"/>
      <point x="118" y="0" type="curve"/>
      <point x="267" y="700" type="line"/>
      <point x="165" y="700" type="line"/>
    </contour>
  </outline>
</glyph>
<glyph name="iogonek" format="2">
  <advance width="215"/>
  <unicode hex="012F"/>
  <outline>
    <contour>
      <point x="185" y="591" type="curve"/>
      <point x="221" y="591"/>
      <point x="253" y="623"/>
      <point x="253" y="660" type="curve" smooth="yes"/>
      <point x="253" y="691"/>
      <point x="229" y="715"/>
      <point x="199" y="715" type="curve"/>
      <point x="163" y="715"/>
      <point x="131" y="683"/>
      <point x="131" y="646" type="curve" smooth="yes"/>
      <point x="131" y="615"/>
      <point x="154" y="591"/>
    </contour>
    <contour>
      <point x="102" y="0" type="curve"/>
      <point x="210" y="509" type="line"/>
      <point x="113" y="509" type="line"/>
      <point x="5" y="0" type="line"/>
      <point x="33" y="0" type="line"/>
      <point x="-47" y="-46"/>
      <point x="-87" y="-95"/>
      <point x="-87" y="-149" type="curve" smooth="yes"/>
      <point x="-87" y="-193"/>
      <point x="-52" y="-222"/>
      <point x="1" y="-222" type="curve" smooth="yes"/>
      <point x="26" y="-222"/>
      <point x="52" y="-215"/>
      <point x="74" y="-204" type="curve"/>
      <point x="69" y="-155" type="line"/>
      <point x="56" y="-162"/>
      <point x="40" y="-166"/>
      <point x="26" y="-166" type="curve" smooth="yes"/>
      <point x="-3" y="-166"/>
      <point x="-21" y="-150"/>
      <point x="-21" y="-126" type="curve" smooth="yes"/>
      <point x="-21" y="-83"/>
      <point x="18" y="-44"/>
    </contour>
  </outline>
</glyph>
<glyph name="kgreenlandic" format="2">
  <advance width="515"/>
  <unicode hex="0138"/>
  <anchor x="211" y="0" name="bottom"/>
  <outline>
    <contour>
      <point x="5" y="0" type="line"/>
      <point x="102" y="0" type="line"/>
      <point x="152" y="236" type="line"/>
      <point x="345" y="0" type="line"/>
      <point x="466" y="0" type="line"/>
      <point x="251" y="256" type="line"/>
      <point x="574" y="509" type="line"/>
      <point x="448" y="509" type="line"/>
      <point x="162" y="283" type="line"/>
      <point x="210" y="509" type="line"/>
      <point x="113" y="509" type="line"/>
    </contour>
  </outline>
</glyph>
<glyph name="lacute" format="2">
  <advance width="215"/>
  <unicode hex="013A"/>
  <outline>
    <contour>
      <point x="279" y="916" type="line"/>
      <point x="162" y="794" type="line"/>
      <point x="248" y="794" type="line"/>
      <point x="399" y="916" type="line"/>
    </contour>
    <contour>
      <point x="5" y="0" type="line"/>
      <point x="102" y="0" type="line"/>
      <point x="250" y="700" type="line"/>
      <point x="154" y="700" type="line"/>
    </contour>
  </outline>
</glyph>
<glyph name="Eng" format="2">
  <advance width="720"/>
  <unicode hex="014A"/>
  <outline>
    <contour>
      <point x="501" y="11" type="line"/>
      <point x="484" y="-68" type="line"/>
      <point x="475" y="-109"/>
      <point x="455" y="-127"/>
      <point x="418" y="-127" type="curve" smooth="yes"/>
      <point x="398" y="-127"/>
      <point x="384" y="-124"/>
      <point x="372" y="-121" type="curve"/>
      <point x="355" y="-200" type="line"/>
      <point x="370" y="-206"/>
      <point x="397" y="-210"/>
      <point x="420" y="-210" type="curve" smooth="yes"/>
      <point x="503" y="-210"/>
      <point x="560" y="-163"/>
      <point x="578" y="-79" type="curve"/>
      <point x="744" y="700" type="line"/>
      <point x="647" y="700" type="line"/>
      <point x="535" y="174" type="line"/>
      <point x="263" y="700" type="line"/>
      <point x="165" y="700" type="line"/>
      <point x="16" y="0" type="line"/>
      <point x="113" y="0" type="line"/>
      <point x="228" y="541" type="line"/>
    </contour>
  </outline>
</glyph>
<glyph name="OE" format="2">
  <advance width="1078"/>
  <unicode hex="0152"/>
  <outline>
    <contour>
      <point x="379" y="0" type="curve"/>
      <point x="987" y="0" type="line"/>
      <point x="1006" y="92" type="line"/>
      <point x="620" y="92" type="line"/>
      <point x="686" y="146"/>
      <point x="733" y="223"/>
      <point x="751" y="308" type="curve"/>
      <point x="927" y="308" type="line"/>
      <point x="946" y="398" type="line"/>
      <point x="759" y="398" type="line"/>
      <point x="755" y="482"/>
      <point x="721" y="556"/>
      <point x="665" y="608" type="curve"/>
      <point x="1116" y="608" type="line"/>
      <point x="1135" y="700" type="line"/>
      <point x="441" y="700" type="line"/>
      <point x="234" y="700"/>
      <point x="58" y="525"/>
      <point x="58" y="317" type="curve" smooth="yes"/>
      <point x="58" y="136"/>
      <point x="196" y="0"/>
    </contour>
    <contour>
      <point x="386" y="96" type="curve"/>
      <point x="258" y="96"/>
      <point x="164" y="191"/>
      <point x="164" y="322" type="curve" smooth="yes"/>
      <point x="164" y="475"/>
      <point x="287" y="604"/>
      <point x="433" y="604" type="curve"/>
      <point x="560" y="604"/>
      <point x="654" y="509"/>
      <point x="654" y="378" type="curve" smooth="yes"/>
      <point x="654" y="224"/>
      <point x="533" y="96"/>
    </contour>
  </outline>
</glyph>
<glyph name="scedilla" format="2">
  <advance width="457"/>
  <unicode hex="015F"/>
  <outline>
    <contour>
      <point x="-15" y="81" type="line"/>
      <point x="28" y="33"/>
      <point x="98" y="1"/>
      <point x="172" y="-8" type="curve"/>
      <point x="130" y="-93" type="line"/>
      <point x="163" y="-93" type="line" smooth="yes"/>
      <point x="198" y="-93"/>
      <point x="219" y="-108"/>
      <point x="219" y="-133" type="curve" smooth="yes"/>
      <point x="219" y="-161"/>
      <point x="193" y="-180"/>
      <point x="155" y="-180" type="curve" smooth="yes"/>
      <point x="125" y="-180"/>
      <point x="99" y="-169"/>
      <point x="78" y="-146" type="curve"/>
      <point x="37" y="-182" type="line"/>
      <point x="65" y="-214"/>
      <point x="105" y="-231"/>
      <point x="153" y="-231" type="curve" smooth="yes"/>
      <point x="225" y="-231"/>
      <point x="280" y="-186"/>
      <point x="280" y="-128" type="curve" smooth="yes"/>
      <point x="280" y="-86"/>
      <point x="251" y="-58"/>
      <point x="202" y="-52" type="curve"/>
      <point x="224" y="-10" type="line"/>
      <point x="336" y="-5"/>
      <point x="419" y="64"/>
      <point x="419" y="156" type="curve" smooth="yes"/>
      <point x="419" y="224"/>
      <point x="376" y="268"/>
      <point x="289" y="287" type="curve" smooth="yes"/>
      <point x="201" y="307" type="line" smooth="yes"/>
      <point x="148" y="319"/>
      <point x="128" y="337"/>
      <point x="128" y="368" type="curve" smooth="yes"/>
      <point x="128" y="412"/>
      <point x="167" y="440"/>
      <point x="227" y="440" type="curve" smooth="yes"/>
      <point x="280" y="440"/>
      <point x="336" y="418"/>
      <point x="387" y="375" type="curve"/>
      <point x="444" y="438" type="line"/>
      <point x="384" y="490"/>
      <point x="311" y="517"/>
      <point x="233" y="517" type="curve" smooth="yes"/>
      <point x="116" y="517"/>
      <point x="40" y="455"/>
      <point x="40" y="358" type="curve" smooth="yes"/>
      <point x="40" y="289"/>
      <point x="82" y="245"/>
      <point x="167" y="226" type="curve" smooth="yes"/>
      <point x="255" y="206" type="line" smooth="yes"/>
      <point x="304" y="195"/>
      <point x="326" y="177"/>
      <point x="326" y="145" type="curve" smooth="yes"/>
      <point x="326" y="100"/>
      <point x="279" y="68"/>
      <point x="213" y="68" type="curve" smooth="yes"/>
      <point x="151" y="68"/>
      <point x="94" y="93"/>
      <point x="45" y="143" type="curve"/>
    </contour>
  </outline>
</glyph>
<glyph name="Tcedilla" format="2">
  <advance width="619"/>
  <unicode hex="0162"/>
  <outline>
    <contour>
      <point x="91" y="607" type="line"/>
      <point x="332" y="607" type="line"/>
      <point x="203" y="0" type="line"/>
      <point x="232" y="0" type="line"/>
      <point x="186" y="-93" type="line"/>
      <point x="219" y="-93" type="line" smooth="yes"/>
      <point x="254" y="-93"/>
      <point x="275" y="-108"/>
      <point x="275" y="-133" type="curve" smooth="yes"/>
      <point x="275" y="-161"/>
      <point x="249" y="-180"/>
      <point x="211" y="-180" type="curve" smooth="yes"/>
      <point x="181" y="-180"/>
      <point x="155" y="-169"/>
      <point x="134" y="-146" type="curve"/>
      <point x="93" y="-182" type="line"/>
      <point x="121" y="-214"/>
      <point x="161" y="-231"/>
      <point x="209" y="-231" type="curve" smooth="yes"/>
      <point x="281" y="-231"/>
      <point x="336" y="-186"/>
      <point x="336" y="-128" type="curve" smooth="yes"/>
      <point x="336" y="-86"/>
      <point x="307" y="-58"/>
      <point x="258" y="-52" type="curve"/>
      <point x="285" y="0" type="line"/>
      <point x="306" y="0" type="line"/>
      <point x="435" y="607" type="line"/>
      <point x="676" y="607" type="line"/>
      <point x="696" y="700" type="line"/>
      <point x="112" y="700" type="line"/>
    </contour>
  </outline>
</glyph>
<glyph name="tbar" format="2">
  <advance width="389"/>
  <unicode hex="0167"/>
  <outline>
    <contour>
      <point x="97" y="134" type="line" smooth="yes"/>
      <point x="78" y="43"/>
      <point x="125" y="-8"/>
      <point x="229" y="-8" type="curve" smooth="yes"/>
      <point x="256" y="-8"/>
      <point x="288" y="-4"/>
      <point x="311" y="2" type="curve"/>
      <point x="329" y="85" type="line"/>
      <point x="305" y="79"/>
      <point x="287" y="76"/>
      <point x="268" y="76" type="curve" smooth="yes"/>
      <point x="206" y="76"/>
      <point x="186" y="98"/>
      <point x="198" y="153" type="curve" smooth="yes"/>
      <point x="219" y="249" type="line"/>
      <point x="365" y="249" type="line"/>
      <point x="380" y="324" type="line"/>
      <point x="235" y="324" type="line"/>
      <point x="256" y="425" type="line"/>
      <point x="402" y="425" type="line"/>
      <point x="420" y="509" type="line"/>
      <point x="274" y="509" type="line"/>
      <point x="307" y="663" type="line"/>
      <point x="204" y="639" type="line"/>
      <point x="176" y="509" type="line"/>
      <point x="71" y="509" type="line"/>
      <point x="53" y="425" type="line"/>
      <point x="159" y="425" type="line"/>
      <point x="137" y="324" type="line"/>
      <point x="32" y="324" type="line"/>
      <point x="16" y="249" type="line"/>
      <point x="121" y="249" type="line"/>
    </contour>
  </outline>
</glyph>
<glyph name="Uogonek" format="2">
  <advance width="698"/>
  <unicode hex="0172"/>
  <outline>
    <contour>
      <point x="646" y="285" type="curve" smooth="yes"/>
      <point x="735" y="700" type="line"/>
      <point x="632" y="700" type="line"/>
      <point x="545" y="292" type="line" smooth="yes"/>
      <point x="518" y="164"/>
      <point x="436" y="86"/>
      <point x="328" y="86" type="curve" smooth="yes"/>
      <point x="208" y="86"/>
      <point x="143" y="176"/>
      <point x="171" y="305" type="curve" smooth="yes"/>
      <point x="255" y="700" type="line"/>
      <point x="152" y="700" type="line"/>
      <point x="70" y="313" type="line" smooth="yes"/>
      <point x="29" y="124"/>
      <point x="131" y="-9"/>
      <point x="320" y="-10" type="curve"/>
      <point x="251" y="-53"/>
      <point x="217" y="-99"/>
      <point x="217" y="-149" type="curve" smooth="yes"/>
      <point x="217" y="-193"/>
      <point x="252" y="-222"/>
      <point x="305" y="-222" type="curve" smooth="yes"/>
      <point x="330" y="-222"/>
      <point x="356" y="-215"/>
      <point x="378" y="-204" type="curve"/>
      <point x="373" y="-155" type="line"/>
      <point x="360" y="-162"/>
      <point x="344" y="-166"/>
      <point x="330" y="-166" type="curve" smooth="yes"/>
      <point x="301" y="-166"/>
      <point x="283" y="-150"/>
      <point x="283" y="-126" type="curve" smooth="yes"/>
      <point x="283" y="-83"/>
      <point x="322" y="-44"/>
      <point x="405" y="0" type="curve"/>
      <point x="527" y="30"/>
      <point x="613" y="129"/>
    </contour>
  </outline>
</glyph>
<glyph name="uogonek" format="2">
  <advance width="556"/>
  <unicode hex="0173"/>
  <outline>
    <contour>
      <point x="443" y="0" type="curve"/>
      <point x="551" y="509" type="line"/>
      <point x="453" y="509" type="line"/>
      <point x="374" y="138" type="line"/>
      <point x="339" y="98"/>
      <point x="295" y="77"/>
      <point x="245" y="77" type="curve" smooth="yes"/>
      <point x="166" y="77"/>
      <point x="125" y="132"/>
      <point x="143" y="214" type="curve" smooth="yes"/>
      <point x="206" y="509" type="line"/>
      <point x="108" y="509" type="line"/>
      <point x="43" y="204" type="line" smooth="yes"/>
      <point x="18" y="82"/>
      <point x="86" y="-9"/>
      <point x="207" y="-9" type="curve" smooth="yes"/>
      <point x="262" y="-9"/>
      <point x="311" y="9"/>
      <point x="354" y="44" type="curve"/>
      <point x="345" y="0" type="line"/>
      <point x="374" y="0" type="line"/>
      <point x="294" y="-46"/>
      <point x="254" y="-95"/>
      <point x="254" y="-149" type="curve" smooth="yes"/>
      <point x="254" y="-193"/>
      <point x="289" y="-222"/>
      <point x="342" y="-222" type="curve" smooth="yes"/>
      <point x="367" y="-222"/>
      <point x="393" y="-215"/>
      <point x="415" y="-204" type="curve"/>
      <point x="410" y="-155" type="line"/>
      <point x="397" y="-162"/>
      <point x="381" y="-166"/>
      <point x="367" y="-166" type="curve" smooth="yes"/>
      <point x="338" y="-166"/>
      <point x="320" y="-150"/>
      <point x="320" y="-126" type="curve" smooth="yes"/>
      <point x="320" y="-83"/>
      <point x="359" y="-44"/>
    </contour>
  </outline>
</glyph>
<glyph name="circumflex" format="2">
  <advance width="508"/>
  <unicode hex="02C6"/>
  <anchor x="308" y="509" name="_top"/>
  <outline>
    <contour>
      <point x="408" y="600" type="line"/>
      <point x="485" y="600" type="line"/>
      <point x="406" y="727" type="line"/>
      <point x="303" y="727" type="line"/>
      <point x="170" y="600" type="line"/>
      <point x="252" y="600" type="line"/>
      <point x="347" y="678" type="line"/>
    </contour>
  </outline>
</glyph>
<glyph name="caron" format="2">
  <advance width="508"/>
  <unicode hex="02C7"/>
  <anchor x="308" y="509" name="_top"/>
  <outline>
    <contour>
      <point x="273" y="728" type="line"/>
      <point x="195" y="728" type="line"/>
      <point x="275" y="601" type="line"/>
      <point x="377" y="601" type="line"/>
      <point x="511" y="728" type="line"/>
      <point x="426" y="728" type="line"/>
      <point x="333" y="650" type="line"/>
    </contour>
  </outline>
</glyph>
<glyph name="breve" format="2">
  <advance width="508"/>
  <unicode hex="02D8"/>
  <anchor x="308" y="509" name="_top"/>
  <outline>
    <contour>
      <point x="338" y="655" type="curve" smooth="yes"/>
      <point x="286" y="655"/>
      <point x="258" y="685"/>
      <point x="256" y="742" type="curve"/>
      <point x="193" y="730" type="line"/>
      <point x="194" y="648"/>
      <point x="250" y="595"/>
      <point x="335" y="595" type="curve" smooth="yes"/>
      <point x="412" y="595"/>
      <point x="474" y="638"/>
      <point x="509" y="717" type="curve"/>
      <point x="446" y="737" type="line"/>
      <point x="420" y="684"/>
      <point x="383" y="655"/>
    </contour>
  </outline>
</glyph>
<glyph name="dotaccent" format="2">
  <advance width="271"/>
  <unicode hex="02D9"/>
  <anchor x="190" y="509" name="_top"/>
  <outline>
    <contour>
      <point x="217" y="602" type="curve"/>
      <point x="252" y="602"/>
      <point x="282" y="633"/>
      <point x="282" y="667" type="curve" smooth="yes"/>
      <point x="282" y="696"/>
      <point x="260" y="719"/>
      <point x="231" y="719" type="curve"/>
      <point x="196" y="719"/>
      <point x="165" y="688"/>
      <point x="165" y="654" type="curve" smooth="yes"/>
      <point x="165" y="625"/>
      <point x="187" y="602"/>
    </contour>
  </outline>
</glyph>
<glyph name="ring" format="2">
  <advance width="508"/>
  <unicode hex="02DA"/>
  <anchor x="308" y="509" name="_top"/>
  <outline>
    <contour>
      <point x="335" y="583" type="curve"/>
      <point x="401" y="583"/>
      <point x="460" y="643"/>
      <point x="460" y="711" type="curve" smooth="yes"/>
      <point x="460" y="771"/>
      <point x="417" y="814"/>
      <point x="356" y="814" type="curve"/>
      <point x="290" y="814"/>
      <point x="231" y="753"/>
      <point x="231" y="685" type="curve" smooth="yes"/>
      <point x="231" y="625"/>
      <point x="274" y="583"/>
    </contour>
    <contour>
      <point x="338" y="631" type="curve"/>
      <point x="305" y="631"/>
      <point x="282" y="656"/>
      <point x="282" y="689" type="curve" smooth="yes"/>
      <point x="282" y="731"/>
      <point x="315" y="765"/>
      <point x="353" y="765" type="curve"/>
      <point x="386" y="765"/>
      <point x="410" y="740"/>
      <point x="410" y="707" type="curve" smooth="yes"/>
      <point x="410" y="665"/>
      <point x="377" y="631"/>
    </contour>
  </outline>
</glyph>
<glyph name="ogonek" format="2">
  <advance width="508"/>
  <unicode hex="02DB"/>
  <anchor x="261" y="0" name="_bottom"/>
  <outline>
    <contour>
      <point x="261" y="0" type="curve"/>
      <point x="228" y="19" type="line"/>
      <point x="124" y="-32"/>
      <point x="72" y="-87"/>
      <point x="72" y="-149" type="curve" smooth="yes"/>
      <point x="72" y="-193"/>
      <point x="107" y="-222"/>
      <point x="160" y="-222" type="curve" smooth="yes"/>
      <point x="185" y="-222"/>
      <point x="211" y="-215"/>
      <point x="233" y="-204" type="curve"/>
      <point x="228" y="-155" type="line"/>
      <point x="215" y="-162"/>
      <point x="199" y="-166"/>
      <point x="185" y="-166" type="curve" smooth="yes"/>
      <point x="156" y="-166"/>
      <point x="138" y="-150"/>
      <point x="138" y="-126" type="curve" smooth="yes"/>
      <point x="138" y="-83"/>
      <point x="177" y="-44"/>
    </contour>
  </outline>
</glyph>
<glyph name="hungarumlaut" format="2">
  <advance width="525"/>
  <unicode hex="02DD"/>
  <anchor x="297" y="509" name="_top"/>
  <outline>
    <contour>
      <point x="307" y="725" type="line"/>
      <point x="181" y="606" type="line"/>
      <point x="261" y="606" type="line"/>
      <point x="413" y="725" type="line"/>
    </contour>
    <contour>
      <point x="486" y="725" type="line"/>
      <point x="360" y="606" type="line"/>
      <point x="436" y="606" type="line"/>
      <point x="592" y="725" type="line"/>
    </contour>
  </outline>
</glyph>
<glyph name="uni2080" format="2">
  <advance width="351"/>
  <unicode hex="2080"/>
  <outline>
    <contour>
      <point x="134" y="-5" type="curve"/>
      <point x="233" y="-5"/>
      <point x="313" y="95"/>
      <point x="313" y="216" type="curve"/>
      <point x="313" y="301"/>
      <point x="262" y="355"/>
      <point x="183" y="355" type="curve"/>
      <point x="84" y="355"/>
      <point x="4" y="256"/>
      <point x="4" y="134" type="curve"/>
      <point x="4" y="49"/>
      <point x="55" y="-5"/>
    </contour>
    <contour>
      <point x="141" y="52" type="curve"/>
      <point x="95" y="52"/>
      <point x="67" y="84"/>
      <point x="67" y="138" type="curve"/>
      <point x="67" y="225"/>
      <point x="117" y="299"/>
      <point x="176" y="299" type="curve"/>
      <point x="222" y="299"/>
      <point x="250" y="266"/>
      <point x="250" y="213" type="curve"/>
      <point x="250" y="125"/>
      <point x="201" y="52"/>
    </contour>
  </outline>
</glyph>
<glyph name="uni2083" format="2">
  <advance width="313"/>
  <unicode hex="2083"/>
  <outline>
    <contour>
      <point x="254" y="105" type="curve"/>
      <point x="254" y="135"/>
      <point x="237" y="158"/>
      <point x="207" y="171" type="curve"/>
      <point x="249" y="188"/>
      <point x="278" y="223"/>
      <point x="278" y="262" type="curve"/>
      <point x="278" y="317"/>
      <point x="230" y="355"/>
      <point x="162" y="355" type="curve"/>
      <point x="115" y="355"/>
      <point x="68" y="338"/>
      <point x="30" y="306" type="curve"/>
      <point x="64" y="263" type="line"/>
      <point x="94" y="287"/>
      <point x="121" y="298"/>
      <point x="153" y="298" type="curve"/>
      <point x="187" y="298"/>
      <point x="212" y="278"/>
      <point x="212" y="252" type="curve"/>
      <point x="212" y="222"/>
      <point x="179" y="200"/>
      <point x="137" y="200" type="curve" smooth="yes"/>
      <point x="112" y="200" type="line"/>
      <point x="101" y="147" type="line"/>
      <point x="132" y="147" type="line" smooth="yes"/>
      <point x="168" y="147"/>
      <point x="190" y="130"/>
      <point x="190" y="103" type="curve"/>
      <point x="190" y="74"/>
      <point x="159" y="52"/>
      <point x="117" y="52" type="curve" smooth="yes"/>
      <point x="76" y="52"/>
      <point x="47" y="65"/>
      <point x="26" y="96" type="curve"/>
      <point x="-23" y="58" type="line"/>
      <point x="4" y="17"/>
      <point x="51" y="-5"/>
      <point x="113" y="-5" type="curve" smooth="yes"/>
      <point x="192" y="-5"/>
      <point x="254" y="43"/>
    </contour>
  </outline>
</glyph>
<glyph name="uni2084" format="2">
  <advance width="334"/>
  <unicode hex="2084"/>
  <outline>
    <contour>
      <point x="299" y="350" type="line"/>
      <point x="225" y="350" type="line"/>
      <point x="-5" y="136" type="line"/>
      <point x="-16" y="83" type="line"/>
      <point x="178" y="83" type="line"/>
      <point x="160" y="0" type="line"/>
      <point x="225" y="0" type="line"/>
      <point x="243" y="83" type="line"/>
      <point x="284" y="83" type="line"/>
      <point x="296" y="138" type="line"/>
      <point x="254" y="138" type="line"/>
    </contour>
    <contour>
      <point x="70" y="138" type="line"/>
      <point x="220" y="278" type="line"/>
      <point x="190" y="138" type="line"/>
    </contour>
  </outline>
</glyph>
<glyph name="uni2086" format="2">
  <advance width="326"/>
  <unicode hex="2086"/>
  <outline>
    <contour>
      <point x="134" y="-5" type="curve" smooth="yes"/>
      <point x="210" y="-5"/>
      <point x="273" y="53"/>
      <point x="273" y="121" type="curve"/>
      <point x="273" y="177"/>
      <point x="229" y="217"/>
      <point x="168" y="217" type="curve" smooth="yes"/>
      <point x="134" y="217"/>
      <point x="100" y="204"/>
      <point x="73" y="181" type="curve"/>
      <point x="88" y="249"/>
      <point x="136" y="298"/>
      <point x="193" y="298" type="curve" smooth="yes"/>
      <point x="220" y="298"/>
      <point x="243" y="289"/>
      <point x="262" y="271" type="curve"/>
      <point x="305" y="315" type="line"/>
      <point x="279" y="339"/>
      <point x="242" y="354"/>
      <point x="202" y="354" type="curve" smooth="yes"/>
      <point x="94" y="354"/>
      <point x="4" y="255"/>
      <point x="4" y="134" type="curve"/>
      <point x="4" y="49"/>
      <point x="55" y="-5"/>
    </contour>
    <contour>
      <point x="150" y="167" type="curve" smooth="yes"/>
      <point x="185" y="167"/>
      <point x="210" y="145"/>
      <point x="210" y="113" type="curve"/>
      <point x="210" y="79"/>
      <point x="178" y="51"/>
      <point x="139" y="51" type="curve" smooth="yes"/>
      <point x="95" y="51"/>
      <point x="68" y="82"/>
      <point x="68" y="133" type="curve"/>
      <point x="93" y="155"/>
      <point x="121" y="167"/>
    </contour>
  </outline>
</glyph>
<glyph name="uni2087" format="2">
  <advance width="302"/>
  <unicode hex="2087"/>
  <outline>
    <contour>
      <point x="1" y="0" type="line"/>
      <point x="81" y="0" type="line"/>
      <point x="301" y="301" type="line"/>
      <point x="311" y="350" type="line"/>
      <point x="37" y="350" type="line"/>
      <point x="26" y="293" type="line"/>
      <point x="222" y="293" type="line"/>
    </contour>
  </outline>
</glyph>
<glyph name="Euro" format="2">
  <advance width="765"/>
  <unicode hex="20AC"/>
  <outline>
    <contour>
      <point x="456" y="314" type="line"/>
      <point x="224" y="314" type="line"/>
      <point x="225" y="340"/>
      <point x="229" y="364"/>
      <point x="236" y="388" type="curve"/>
      <point x="498" y="388" type="line"/>
      <point x="532" y="447" type="line"/>
      <point x="257" y="447" type="line"/>
      <point x="306" y="554"/>
      <point x="404" y="627"/>
      <point x="517" y="627" type="curve" smooth="yes"/>
      <point x="604" y="627"/>
      <point x="679" y="586"/>
      <point x="714" y="517" type="curve"/>
      <point x="791" y="564" type="line"/>
      <point x="745" y="658"/>
      <point x="651" y="710"/>
      <point x="527" y="710" type="curve" smooth="yes"/>
      <point x="361" y="710"/>
      <point x="219" y="602"/>
      <point x="160" y="447" type="curve"/>
      <point x="74" y="447" type="line"/>
      <point x="61" y="388" type="line"/>
      <point x="143" y="388" type="line"/>
      <point x="137" y="364"/>
      <point x="133" y="339"/>
      <point x="132" y="314" type="curve"/>
      <point x="45" y="314" type="line"/>
      <point x="33" y="255" type="line"/>
      <point x="132" y="255" type="line"/>
      <point x="145" y="95"/>
      <point x="260" y="-10"/>
      <point x="430" y="-10" type="curve" smooth="yes"/>
      <point x="531" y="-10"/>
      <point x="624" y="28"/>
      <point x="694" y="99" type="curve"/>
      <point x="637" y="154" type="line"/>
      <point x="586" y="103"/>
      <point x="514" y="74"/>
      <point x="439" y="74" type="curve" smooth="yes"/>
      <point x="320" y="74"/>
      <point x="239" y="143"/>
      <point x="225" y="255" type="curve"/>
      <point x="423" y="255" type="line"/>
    </contour>
  </outline>
</glyph>
<glyph name="minus" format="2">
  <advance width="525"/>
  <unicode hex="2212"/>
  <outline>
    <contour>
      <point x="505" y="398" type="line"/>
      <point x="81" y="398" type="line"/>
      <point x="64" y="318" type="line"/>
      <point x="488" y="318" type="line"/>
    </contour>
  </outline>
</glyph>
<glyph name="notequal" format="2">
  <advance width="525"/>
  <unicode hex="2260"/>
  <outline>
    <contour>
      <point x="19" y="121" type="line"/>
      <point x="109" y="121" type="line"/>
      <point x="209" y="228" type="line"/>
      <point x="469" y="228" type="line"/>
      <point x="486" y="308" type="line"/>
      <point x="284" y="308" type="line"/>
      <point x="372" y="402" type="line"/>
      <point x="506" y="402" type="line"/>
      <point x="523" y="482" type="line"/>
      <point x="447" y="482" type="line"/>
      <point x="547" y="589" type="line"/>
      <point x="457" y="589" type="line"/>
      <point x="357" y="482" type="line"/>
      <point x="99" y="482" type="line"/>
      <point x="82" y="402" type="line"/>
      <point x="282" y="402" type="line"/>
      <point x="194" y="308" type="line"/>
      <point x="61" y="308" type="line"/>
      <point x="44" y="228" type="line"/>
      <point x="119" y="228" type="line"/>
    </contour>
  </outline>
</glyph>
<glyph name="a.school" format="2">
  <advance width="595"/>
  <anchor x="328" y="509" name="top"/>
  <anchor x="482" y="0" name="bottom"/>
  <outline>
    <contour>
      <point x="385" y="0" type="line"/>
      <point x="482" y="0" type="line"/>
      <point x="590" y="509" type="line"/>
      <point x="493" y="509" type="line"/>
      <point x="481" y="452" type="line"/>
      <point x="440" y="493"/>
      <point x="381" y="516"/>
      <point x="316" y="516" type="curve" smooth="yes"/>
      <point x="161" y="516"/>
      <point x="35" y="387"/>
      <point x="35" y="227" type="curve" smooth="yes"/>
      <point x="35" y="93"/>
      <point x="132" y="-8"/>
      <point x="260" y="-8" type="curve" smooth="yes"/>
      <point x="307" y="-8"/>
      <point x="352" y="5"/>
      <point x="392" y="31" type="curve"/>
    </contour>
    <contour>
      <point x="131" y="235" type="curve" smooth="yes"/>
      <point x="131" y="343"/>
      <point x="215" y="430"/>
      <point x="320" y="430" type="curve" smooth="yes"/>
      <point x="380" y="430"/>
      <point x="434" y="402"/>
      <point x="461" y="360" type="curve"/>
      <point x="411" y="126" type="line"/>
      <point x="376" y="95"/>
      <point x="332" y="78"/>
      <point x="284" y="78" type="curve" smooth="yes"/>
      <point x="195" y="78"/>
      <point x="131" y="144"/>
    </contour>
  </outline>
</glyph>
<glyph name="caronSlovak" format="2">
  <advance width="396"/>
  <outline>
    <contour>
      <point x="253" y="716" type="line"/>
      <point x="200" y="496" type="line"/>
      <point x="274" y="496" type="line"/>
      <point x="354" y="716" type="line"/>
    </contour>
  </outline>
</glyph>
<glyph name="g.alt" format="2">
  <advance width="548"/>
  <note>
Version created Sun Jan 13 16:53:00 2019
</note>
  <anchor x="305" y="509" name="top"/>
  <outline>
    <contour>
      <point x="65" y="309" type="curve" smooth="yes"/>
      <point x="65" y="255"/>
      <point x="92" y="208"/>
      <point x="136" y="178" type="curve"/>
      <point x="81" y="160"/>
      <point x="45" y="121"/>
      <point x="45" y="74" type="curve" smooth="yes"/>
      <point x="45" y="52"/>
      <point x="54" y="34"/>
      <point x="70" y="19" type="curve"/>
      <point x="-4" y="0"/>
      <point x="-48" y="-41"/>
      <point x="-48" y="-93" type="curve" smooth="yes"/>
      <point x="-48" y="-167"/>
      <point x="54" y="-213"/>
      <point x="215" y="-213" type="curve" smooth="yes"/>
      <point x="375" y="-213"/>
      <point x="481" y="-148"/>
      <point x="481" y="-51" type="curve" smooth="yes"/>
      <point x="481" y="4"/>
      <point x="439" y="40"/>
      <point x="362" y="49" type="curve" smooth="yes"/>
      <point x="188" y="69" type="line" smooth="yes"/>
      <point x="154" y="73"/>
      <point x="137" y="85"/>
      <point x="137" y="104" type="curve" smooth="yes"/>
      <point x="137" y="127"/>
      <point x="157" y="144"/>
      <point x="190" y="151" type="curve"/>
      <point x="213" y="144"/>
      <point x="238" y="140"/>
      <point x="265" y="140" type="curve" smooth="yes"/>
      <point x="394" y="140"/>
      <point x="497" y="231"/>
      <point x="497" y="344" type="curve" smooth="yes"/>
      <point x="497" y="376"/>
      <point x="488" y="406"/>
      <point x="471" y="431" type="curve"/>
      <point x="492" y="444"/>
      <point x="517" y="451"/>
      <point x="544" y="451" type="curve" smooth="yes"/>
      <point x="559" y="451"/>
      <point x="574" y="449"/>
      <point x="587" y="445" type="curve"/>
      <point x="602" y="525" type="line"/>
      <point x="592" y="529"/>
      <point x="581" y="530"/>
      <point x="568" y="530" type="curve" smooth="yes"/>
      <point x="521" y="530"/>
      <point x="476" y="505"/>
      <point x="445" y="463" type="curve"/>
      <point x="409" y="497"/>
      <point x="358" y="517"/>
      <point x="299" y="517" type="curve" smooth="yes"/>
      <point x="172" y="517"/>
      <point x="65" y="422"/>
    </contour>
    <contour>
      <point x="405" y="337" type="curve" smooth="yes"/>
      <point x="405" y="272"/>
      <point x="342" y="215"/>
      <point x="270" y="215" type="curve" smooth="yes"/>
      <point x="206" y="215"/>
      <point x="158" y="257"/>
      <point x="158" y="314" type="curve" smooth="yes"/>
      <point x="158" y="383"/>
      <point x="220" y="439"/>
      <point x="295" y="439" type="curve" smooth="yes"/>
      <point x="357" y="439"/>
      <point x="405" y="395"/>
    </contour>
    <contour>
      <point x="44" y="-78" type="curve" smooth="yes"/>
      <point x="44" y="-46"/>
      <point x="78" y="-20"/>
      <point x="132" y="-11" type="curve"/>
      <point x="143" y="-14"/>
      <point x="156" y="-16"/>
      <point x="170" y="-18" type="curve" smooth="yes"/>
      <point x="328" y="-36" type="line" smooth="yes"/>
      <point x="361" y="-40"/>
      <point x="379" y="-55"/>
      <point x="379" y="-75" type="curve" smooth="yes"/>
      <point x="379" y="-118"/>
      <point x="316" y="-146"/>
      <point x="222" y="-146" type="curve" smooth="yes"/>
      <point x="111" y="-146"/>
      <point x="44" y="-120"/>
    </contour>
  </outline>
</glyph>
<glyph name="reversequotedblleft" format="2">
  <advance width="371"/>
  <outline>
    <contour>
      <point x="186" y="728" type="line"/>
      <point x="81" y="728" type="line"/>
      <point x="149" y="496" type="line"/>
      <point x="225" y="496" type="line"/>
    </contour>
    <contour>
      <point x="343" y="728" type="line"/>
      <point x="238" y="728" type="line"/>
      <point x="307" y="496" type="line"/>
      <point x="383" y="496" type="line"/>
    </contour>
  </outline>
</glyph>
